<svg width="181" height="71" viewBox="0 0 181 71" fill="none" xmlns="http://www.w3.org/2000/svg">
<g clip-path="url(#clip0)">
<path d="M18.9198 13.7539C15.7811 13.7499 12.6911 14.5333 9.93062 16.0329V39.2476H1.13062C2.31522 42.5114 4.36883 45.3865 7.06802 47.5602C9.76721 49.7339 13.0086 51.1229 16.4395 51.576C19.8703 52.0291 23.3593 51.5291 26.5268 50.1302C29.6942 48.7313 32.4188 46.4872 34.4041 43.6421C36.3894 40.797 37.5593 37.4598 37.7866 33.9936C38.0139 30.5275 37.2899 27.0651 35.6933 23.9833C34.0967 20.9015 31.6887 18.3182 28.7312 16.5146C25.7738 14.711 22.3803 13.7561 18.9198 13.7539V13.7539Z" fill="#F6B62A"/>
<path d="M9.9308 16.033V0H5.60748e-08V32.7461C-0.000262662 29.3202 0.922629 25.958 2.6709 23.0158C4.41918 20.0735 6.92773 17.6607 9.9308 16.033V16.033Z" fill="#F6B62A"/>
<path d="M9.9308 16.033C5.93171 18.1972 2.84195 21.7337 1.22619 25.9961C-0.389565 30.2585 -0.423427 34.9623 1.1308 39.2477H9.9308V16.033Z" fill="#F6B62A"/>
<path d="M54.9999 32.4811H45.2275V70.9999H54.9999V32.4811Z" fill="#F6B62A"/>
<path d="M43.8459 23.9788C45.2229 28.2146 45.5811 32.7175 44.8912 37.1189C44.2013 41.5203 42.4829 45.6952 39.8767 49.3019C37.2706 52.9086 33.8506 55.8445 29.8968 57.8694C25.943 59.8943 21.5678 60.9506 17.1291 60.9518C16.6099 60.9518 16.0995 60.9518 15.5891 60.9077V70.7085C15.9323 70.7085 16.2799 70.7085 16.6275 70.7085C26.8007 70.7085 36.5575 66.6533 43.7531 59.4344C50.9487 52.2155 54.9941 42.4238 54.9999 32.2117C54.9994 29.4438 54.7044 26.6838 54.1199 23.9788H43.8459Z" fill="#F6B62A"/>
</g>
<path d="M78.5869 41V23.2266H84.8125C86.9691 23.2266 88.6048 23.6416 89.7197 24.4717C90.8346 25.2936 91.3921 26.5021 91.3921 28.0972C91.3921 28.9679 91.1683 29.737 90.7207 30.4043C90.2731 31.0635 89.6506 31.5477 88.853 31.8569C89.7645 32.0848 90.4806 32.5446 91.0015 33.2363C91.5304 33.9281 91.7949 34.7744 91.7949 35.7754C91.7949 37.4844 91.2497 38.7783 90.1592 39.6572C89.0687 40.5361 87.5143 40.9837 85.4961 41H78.5869ZM82.249 33.2607V38.0581H85.3862C86.2489 38.0581 86.9202 37.8547 87.4004 37.4478C87.8887 37.0327 88.1328 36.4631 88.1328 35.7388C88.1328 34.1112 87.2905 33.2852 85.606 33.2607H82.249ZM82.249 30.6729H84.959C86.8063 30.6403 87.73 29.9038 87.73 28.4634C87.73 27.6577 87.494 27.0799 87.022 26.73C86.5581 26.3719 85.8216 26.1929 84.8125 26.1929H82.249V30.6729ZM93.7725 34.2739C93.7725 32.9637 94.0247 31.7959 94.5293 30.7705C95.0339 29.7451 95.7581 28.9517 96.7021 28.3901C97.6543 27.8286 98.757 27.5479 100.01 27.5479C101.792 27.5479 103.245 28.0931 104.368 29.1836C105.499 30.2741 106.13 31.7552 106.26 33.627L106.285 34.5303C106.285 36.5566 105.719 38.1842 104.588 39.4131C103.457 40.6338 101.939 41.2441 100.035 41.2441C98.1304 41.2441 96.6086 40.6338 95.4692 39.4131C94.3381 38.1924 93.7725 36.5322 93.7725 34.4326V34.2739ZM97.3003 34.5303C97.3003 35.7835 97.5363 36.7438 98.0083 37.4111C98.4803 38.0703 99.1558 38.3999 100.035 38.3999C100.889 38.3999 101.556 38.0744 102.037 37.4233C102.517 36.7642 102.757 35.7144 102.757 34.2739C102.757 33.0451 102.517 32.0929 102.037 31.4175C101.556 30.742 100.881 30.4043 100.01 30.4043C99.1476 30.4043 98.4803 30.742 98.0083 31.4175C97.5363 32.0848 97.3003 33.1224 97.3003 34.5303ZM111.705 27.792L111.814 29.3179C112.758 28.1379 114.024 27.5479 115.611 27.5479C117.011 27.5479 118.052 27.9588 118.736 28.7808C119.419 29.6027 119.769 30.8315 119.786 32.4673V41H116.258V32.5527C116.258 31.804 116.095 31.2629 115.77 30.9292C115.444 30.5874 114.903 30.4165 114.146 30.4165C113.153 30.4165 112.409 30.8397 111.912 31.686V41H108.384V27.792H111.705ZM128.55 41.2441C126.613 41.2441 125.035 40.6501 123.814 39.4619C122.601 38.2738 121.995 36.6909 121.995 34.7134V34.3716C121.995 33.0451 122.251 31.861 122.764 30.8193C123.277 29.7695 124.001 28.9639 124.937 28.4023C125.881 27.8327 126.955 27.5479 128.16 27.5479C129.966 27.5479 131.386 28.1175 132.42 29.2568C133.462 30.3962 133.982 32.0116 133.982 34.103V35.5435H125.572C125.686 36.4061 126.028 37.0978 126.597 37.6187C127.175 38.1395 127.903 38.3999 128.782 38.3999C130.141 38.3999 131.203 37.9076 131.968 36.9229L133.702 38.8638C133.173 39.6125 132.457 40.1984 131.553 40.6216C130.65 41.0366 129.649 41.2441 128.55 41.2441ZM128.147 30.4043C127.448 30.4043 126.878 30.6403 126.438 31.1123C126.007 31.5843 125.73 32.2598 125.608 33.1387H130.516V32.8579C130.499 32.0767 130.288 31.4744 129.881 31.0513C129.474 30.62 128.896 30.4043 128.147 30.4043ZM84.1533 62.8711L82.249 64.9219V70H78.5869V52.2266H82.249V60.2832L83.8604 58.0737L88.3892 52.2266H92.8936L86.5825 60.1245L93.0767 70H88.7188L84.1533 62.8711ZM101.841 68.6572C100.971 69.7152 99.7661 70.2441 98.228 70.2441C96.812 70.2441 95.7297 69.8372 94.981 69.0234C94.2404 68.2096 93.862 67.0174 93.8457 65.4468V56.792H97.3735V65.3247C97.3735 66.7 98.0002 67.3877 99.2534 67.3877C100.45 67.3877 101.272 66.9727 101.719 66.1426V56.792H105.259V70H101.939L101.841 68.6572ZM115.342 60.1001C114.862 60.035 114.439 60.0024 114.073 60.0024C112.738 60.0024 111.863 60.4541 111.448 61.3574V70H107.92V56.792H111.253L111.351 58.3667C112.059 57.1541 113.039 56.5479 114.292 56.5479C114.683 56.5479 115.049 56.6007 115.391 56.7065L115.342 60.1001ZM120.774 70H117.234V56.792H120.774V70ZM117.027 53.374C117.027 52.8451 117.202 52.4097 117.552 52.0679C117.91 51.7261 118.394 51.5552 119.004 51.5552C119.607 51.5552 120.087 51.7261 120.445 52.0679C120.803 52.4097 120.982 52.8451 120.982 53.374C120.982 53.9111 120.799 54.3506 120.433 54.6924C120.075 55.0342 119.598 55.2051 119.004 55.2051C118.41 55.2051 117.93 55.0342 117.564 54.6924C117.206 54.3506 117.027 53.9111 117.027 53.374ZM131.114 60.1001C130.634 60.035 130.21 60.0024 129.844 60.0024C128.51 60.0024 127.635 60.4541 127.22 61.3574V70H123.692V56.792H127.024L127.122 58.3667C127.83 57.1541 128.811 56.5479 130.064 56.5479C130.455 56.5479 130.821 56.6007 131.163 56.7065L131.114 60.1001Z" fill="#404040"/>
<defs>
<clipPath id="clip0">
<rect width="55" height="71" fill="white"/>
</clipPath>
</defs>
</svg>
