<svg width="54" height="54" viewBox="0 0 54 54" fill="none" xmlns="http://www.w3.org/2000/svg">
<path fill-rule="evenodd" clip-rule="evenodd" d="M22.465 16.066C23.638 16.012 24.012 16 27 16C29.988 16 30.362 16.013 31.534 16.066C32.706 16.119 33.506 16.306 34.206 16.577C34.939 16.854 35.604 17.287 36.154 17.847C36.714 18.396 37.146 19.06 37.422 19.794C37.694 20.494 37.88 21.294 37.934 22.464C37.988 23.639 38 24.013 38 27C38 29.988 37.987 30.362 37.934 31.535C37.881 32.705 37.694 33.505 37.422 34.205C37.146 34.9391 36.7133 35.6042 36.154 36.154C35.604 36.714 34.939 37.146 34.206 37.422C33.506 37.694 32.706 37.88 31.536 37.934C30.362 37.988 29.988 38 27 38C24.012 38 23.638 37.987 22.465 37.934C21.295 37.881 20.495 37.694 19.795 37.422C19.0609 37.146 18.3958 36.7133 17.846 36.154C17.2864 35.6047 16.8533 34.9399 16.577 34.206C16.306 33.506 16.12 32.706 16.066 31.536C16.012 30.361 16 29.987 16 27C16 24.012 16.013 23.638 16.066 22.466C16.119 21.294 16.306 20.494 16.577 19.794C16.8537 19.0601 17.2871 18.3953 17.847 17.846C18.396 17.2865 19.0605 16.8534 19.794 16.577C20.494 16.306 21.294 16.12 22.464 16.066H22.465ZM31.445 18.046C30.285 17.993 29.937 17.982 27 17.982C24.063 17.982 23.715 17.993 22.555 18.046C21.482 18.095 20.9 18.274 20.512 18.425C19.999 18.625 19.632 18.862 19.247 19.247C18.882 19.6021 18.6012 20.0343 18.425 20.512C18.274 20.9 18.095 21.482 18.046 22.555C17.993 23.715 17.982 24.063 17.982 27C17.982 29.937 17.993 30.285 18.046 31.445C18.095 32.518 18.274 33.1 18.425 33.488C18.601 33.965 18.882 34.398 19.247 34.753C19.602 35.118 20.035 35.399 20.512 35.575C20.9 35.726 21.482 35.905 22.555 35.954C23.715 36.007 24.062 36.018 27 36.018C29.938 36.018 30.285 36.007 31.445 35.954C32.518 35.905 33.1 35.726 33.488 35.575C34.001 35.375 34.368 35.138 34.753 34.753C35.118 34.398 35.399 33.965 35.575 33.488C35.726 33.1 35.905 32.518 35.954 31.445C36.007 30.285 36.018 29.937 36.018 27C36.018 24.063 36.007 23.715 35.954 22.555C35.905 21.482 35.726 20.9 35.575 20.512C35.375 19.999 35.138 19.632 34.753 19.247C34.3979 18.8821 33.9657 18.6012 33.488 18.425C33.1 18.274 32.518 18.095 31.445 18.046V18.046ZM25.595 30.391C26.3797 30.7176 27.2534 30.7617 28.0669 30.5157C28.8805 30.2697 29.5834 29.7489 30.0556 29.0422C30.5278 28.3356 30.7401 27.4869 30.656 26.6411C30.572 25.7953 30.197 25.005 29.595 24.405C29.2112 24.0215 28.7472 23.7278 28.2363 23.5451C27.7255 23.3625 27.1804 23.2954 26.6405 23.3486C26.1006 23.4019 25.5792 23.5742 25.1138 23.8531C24.6485 24.1321 24.2507 24.5107 23.9493 24.9619C23.6479 25.413 23.4502 25.9253 23.3705 26.462C23.2908 26.9986 23.3312 27.5463 23.4885 28.0655C23.6459 28.5847 23.9165 29.0626 24.2807 29.4647C24.645 29.8668 25.0938 30.1832 25.595 30.391ZM23.002 23.002C23.527 22.477 24.1503 22.0605 24.8363 21.7764C25.5223 21.4922 26.2575 21.346 27 21.346C27.7425 21.346 28.4777 21.4922 29.1637 21.7764C29.8497 22.0605 30.473 22.477 30.998 23.002C31.523 23.527 31.9395 24.1503 32.2236 24.8363C32.5078 25.5223 32.654 26.2575 32.654 27C32.654 27.7425 32.5078 28.4777 32.2236 29.1637C31.9395 29.8497 31.523 30.473 30.998 30.998C29.9377 32.0583 28.4995 32.654 27 32.654C25.5005 32.654 24.0623 32.0583 23.002 30.998C21.9417 29.9377 21.346 28.4995 21.346 27C21.346 25.5005 21.9417 24.0623 23.002 23.002V23.002ZM33.908 22.188C34.0381 22.0653 34.1423 21.9177 34.2143 21.754C34.2863 21.5903 34.3248 21.4138 34.3274 21.2349C34.33 21.0561 34.2967 20.8785 34.2295 20.7128C34.1622 20.5471 34.0624 20.3965 33.936 20.27C33.8095 20.1436 33.6589 20.0438 33.4932 19.9765C33.3275 19.9093 33.1499 19.876 32.9711 19.8786C32.7922 19.8812 32.6157 19.9197 32.452 19.9917C32.2883 20.0637 32.1407 20.1679 32.018 20.298C31.7793 20.551 31.6486 20.8871 31.6537 21.2349C31.6588 21.5827 31.7992 21.9149 32.0452 22.1608C32.2911 22.4068 32.6233 22.5472 32.9711 22.5523C33.3189 22.5574 33.655 22.4267 33.908 22.188V22.188Z" fill="black"/>
<circle cx="27" cy="27" r="26.5" stroke="black"/>
</svg>
