<svg width="650" height="835" viewBox="0 0 650 835" fill="none" xmlns="http://www.w3.org/2000/svg">
<path d="M223.383 161.754C186.345 161.707 149.883 170.92 117.31 188.557V461.574H13.47C27.4482 499.958 51.6809 533.772 83.5313 559.336C115.382 584.9 153.63 601.235 194.114 606.564C234.599 611.893 275.769 606.011 313.144 589.56C350.52 573.108 382.67 546.717 406.097 513.256C429.523 479.796 443.329 440.549 446.011 399.785C448.693 359.021 440.15 318.302 421.31 282.058C402.47 245.814 374.055 215.433 339.157 194.222C304.26 173.01 264.216 161.78 223.383 161.754Z" fill="#F6B62A"/>
<path d="M117.31 188.557V0H0.12671V385.113C0.12361 344.822 11.0137 305.281 31.6434 270.678C52.273 236.075 81.8739 207.699 117.31 188.557Z" fill="#F6B62A"/>
<path d="M117.31 188.557C70.1209 214.009 33.6618 255.6 14.5958 305.729C-4.47011 355.857 -4.86968 411.176 13.4702 461.575H117.31V188.557Z" fill="#F6B62A"/>
<path d="M649.127 381.996H533.812V835H649.127V381.996Z" fill="#F6B62A"/>
<path d="M517.51 282.004C533.758 331.819 537.985 384.775 529.844 436.539C521.703 488.302 501.427 537.401 470.674 579.818C439.921 622.234 399.565 656.762 352.91 680.576C306.256 704.39 254.628 716.813 202.252 716.827C196.125 716.827 190.102 716.827 184.08 716.308V831.572C188.129 831.572 192.231 831.572 196.333 831.572C316.376 831.572 431.507 783.88 516.415 698.982C601.323 614.083 649.058 498.927 649.127 378.828C649.122 346.275 645.64 313.817 638.743 282.004H517.51Z" fill="#F6B62A"/>
</svg>
