<svg width="373" height="282" viewBox="0 0 373 282" fill="none" xmlns="http://www.w3.org/2000/svg">
<path d="M71.9 181.5C71.6 181 71.3 180.5 71 180C64.3 179.4 57.5 179.2 50.9 178.2C46.3 177.5 42.5 177.6 39 181C36.9 183.1 34.2 184.7 32.3 186.9C30.6 188.8 29.7 191.3 28.4 193.5C40.8 185 53.8 181.2 68.4 183.4C69.5 183.6 70.7 182.2 71.9 181.5Z" fill="white"/>
<path d="M17.8 169.1C16.7 168.7 15.7 168.4 14.8 168.3C15.8 168.5 16.8 168.8 17.8 169.1Z" fill="white"/>
<path d="M138.7 242.7C139.4 242.3 140.1 241.9 140.8 241.5C140.9 241.4 142.5 240.5 145.8 238.7C147 238 148.5 237.2 150.3 236.2C148.4 233.4 147.1 231.6 145.4 229C142.5 233.9 140.1 237.9 137.7 242C137.9 242.2 138 242.4 138.2 242.6C138.2 242.7 138.4 242.8 138.7 242.7Z" fill="white"/>
<path d="M21.1 147L24.4 145.2C23.3 145.7 22.2 146.3 21.1 147Z" fill="white"/>
<path d="M260.7 69C260.4 69.4 260 69.7 259.7 70C260 69.7 260.4 69.4 260.7 69Z" fill="white"/>
<path d="M151.2 206.6C147.2 211.7 140.6 212.4 138.5 212.6C137.3 212.7 129.5 213.4 122.6 208.4C128.2 215.7 136.9 223.9 149.2 227.6C175.4 235.4 202.5 239.5 230 239C242.2 238.8 254.3 237.4 265.3 231.4C267.6 230.2 269.7 227.8 270.7 225.4C277.1 210.6 283.4 195.7 289.2 180.7C291.5 174.8 291.9 168.2 293.9 162.1C294.9 159 296.8 154.7 299.2 154C305.5 152 304.4 148 303.9 143.5C303.7 142.1 303.5 140.7 303.3 139.3C294.8 139.3 288.7 139.2 287.9 139.3C287.8 139.3 287.3 139.3 287.1 139.1C286.8 138.8 286.9 138.4 286.9 138.3C287.1 136.4 284.6 107.4 287.6 105.5C285.2 102.4 282.7 99.3 280.1 96.3C277.6 93.4 274 91.2 270.5 89.4C267.2 87.7 264.1 89.4 262.6 92.5C260.2 97.4 259.2 103 262.2 107.9C271.2 122.4 274 139 279.2 154.8C279.5 155.7 279.3 156.8 279.1 157.8C277.8 165 276.4 172.2 275 179.4L272.7 186.5C272.4 187.8 272.1 188.9 271.8 190C268.8 200.3 265.4 210.4 257.9 218.4C253.8 222.7 249.1 225 242.7 224.1C232.2 222.6 221.5 222.1 211 220.6C196.7 218.5 182.3 216.5 168.2 213.3C159.1 211.3 154.8 207.7 153.9 201.7C153.4 202.6 152.8 204.6 151.2 206.6Z" fill="white"/>
<path d="M261.4 68.3C261.6 68.1 261.8 67.8 262.1 67.6C261.8 67.8 261.6 68.1 261.4 68.3Z" fill="white"/>
<path d="M23.4 148.4C23.9 147.5 24.4 146.6 24.9 145.7C24.4 146.5 23.9 147.4 23.4 148.4C23.2 148.7 23.1 149.1 22.9 149.4C22.7 150.3 22.5 151.3 22.3 152.4C22.1 154.5 22.3 154.8 22 156.7C21.6 159.2 20.9 160.2 19.4 164.2C19 165.3 18.4 167 17.7 169.1C23.8 170.8 29.7 172.4 35.6 174.1C35.6 173.5 35.5 172.8 35.5 172.2C37.1 171.3 38.7 169.7 40.1 169.8C41 169.9 41.8 170.2 42.7 170.5L41.9 169.9C38.8 167.9 36 165.6 33.5 162.9C32.8 162.9 32.2 162.9 31.5 162.8C30.5 162.7 29.5 162.3 29 161.5C28.7 161 28.6 160.4 28.6 159.8C28.6 159.2 28.7 158.6 29.1 158.1C29.4 157.8 29.8 157.6 30.2 157.4C30.3 157.4 30.4 157.3 30.5 157.3C30.8 157.2 31.1 157.1 31.4 157.1C32.5 156.9 33.7 156.9 34.8 157C34.7 156.9 34.6 156.8 34.5 156.7L33.3 155.9C33.8 156.1 34.1 156.3 34.5 156.7L35 157C34.9 157 34.9 157 34.8 157C34.8 157 34.8 157 34.9 157.1C35.5 157.1 36.1 157.2 36.6 157.2C40.2 157.2 42.1 154.7 44.5 153C72 133.4 92 131.4 92 131.4C93.2 131.3 94.3 131.2 95.5 131.2C88.8 129.5 82.5 126.4 76.5 122.2C73.4 120 70.2 117.9 67 115.8C66.1 115.2 64.5 114.4 64 114.8C61 116.8 58.7 115 56.2 113.8C54.5 113 52.6 112.8 50.1 112.1C50.1 119.6 57.5 121 59 124.8C51.1 130.8 43.7 136.5 36.2 142.2C35.5 142.8 34.5 143.3 33.6 143.3C30.2 143.3 27.2 144 24.4 145.3C23.9 146.4 23.3 147.8 22.9 149.6C23.1 149.1 23.3 148.7 23.4 148.4Z" fill="white"/>
<path d="M157.2 183C156.2 186.7 155.7 187.3 155.2 190.3C155.9 187.9 156.6 185.5 157.2 183Z" fill="white"/>
<path d="M111.3 191.4C111.4 191.8 111.6 192.1 111.8 192.5C112.5 194 113.7 195.1 114.9 196.3C114.3 195.3 113.7 194.3 112.8 193.2C112.3 192.6 111.8 192 111.3 191.4Z" fill="white"/>
<path d="M138.9 242.7C139.9 242.6 140.6 241.8 140.8 241.6C140.1 242 139.4 242.4 138.7 242.8C138.8 242.7 138.8 242.7 138.9 242.7Z" fill="white"/>
<path d="M368.9 276.7C365.1 276.8 361.2 276.7 357.4 276.7C350.7 276.7 344 276.7 337.3 276.7C356.7 267.1 367.9 252.5 367.3 230.9C366.7 209.2 354.8 195 335.2 186.3C342.3 186.3 349.5 186.3 357.2 186.3C355.1 177.7 350.4 171.3 344.3 165.7C335.3 157.4 323.9 155.8 312.6 154.3C308.5 153.8 307.5 152.5 307.3 148.7C305.8 125.2 294.8 106.2 278 90.4C275.1 87.7 270.6 86.6 267.1 84.8C266.7 85.1 267 84.7 267.5 84.5C277 80.5 282.8 70.3 280.5 61.3C278 51.4 268.4 44.6 258.2 45.3C256.2 45.5 254.2 45.7 252.2 46C234 48 223.5 61 227.1 79C229.2 89.7 233.5 99.9 236.9 110.3C240.6 121.7 243.9 133.2 248 144.4C250.9 152.5 253.4 160.6 251.7 169.1C249.2 181.8 246.3 194.4 242.9 206.8C241 214.1 240.5 214.1 233.1 213.2C221.7 211.8 210.4 210 199 208.7C192.8 208 188.4 206.1 185.2 199.6C182.4 194 181.3 188.8 182.6 183C183.9 177.2 185.6 171.4 187 165.6C187.4 163.9 188 161.8 187.4 160.3C185.4 155.4 185.6 151.6 191.9 150.1C191.1 145.9 190.7 141.9 189.7 138.1C185.8 123.5 178 117.5 163 116.9C152.5 116.5 142 116.2 131.6 115.2C112.8 113.3 94.6 108.7 76.7 102.7C68.2 99.8 62.4 103.5 61.5 112.6C58.4 111.3 55.5 109.8 52.4 108.9C47.8 107.6 45.9 109.5 47.4 114C48.1 116 49.2 117.9 50.6 119.5C52 121.1 54 122.3 55.9 123.8C51.3 126.6 47.7 128.4 44.5 130.7C41.3 133 38.4 135.9 35.4 138.4C34.4 139.2 33.2 139.9 32 140.3C26.5 142.4 20.9 144.2 15.6 146.6C8.00001 150 4.40001 157.1 6.10001 165.4C6.40001 166.9 8.10001 168.5 9.60001 169.2C12.2 170.4 15.2 170.8 17.4 171.4C15.4 181.3 14.1 190.8 11.5 199.9C9.00001 209 5.30001 217.7 1.60001 227.9C5.00001 226 7.50001 224.6 11.1 222.7C11.6 225.5 12.5 228.1 12.6 230.6C12.9 241.8 16.3 251.8 23.3 260.6C28.8 267.5 35.8 272.1 43.6 276.3C42 276.3 40.4 276.3 38.8 276.3C27.5 276.3 16.1 276.4 4.80001 276.3C1.40001 276.3 0.20001 277.3 1.50001 280.8C125 280.8 248.4 280.8 371.8 280.8C373 278 372.3 276.6 368.9 276.7ZM306.6 157.3C308.7 156.1 315.1 156.6 322.4 158.7C326.9 159.6 331.4 161 335.7 163.3C343.9 167.7 349.5 173.8 353.2 181.9C353.1 181.9 353 181.9 352.9 181.9C353 182.1 353.1 182.3 353.2 182.5C344.9 182.7 336.6 183 328.4 183.2C328.6 183 328.8 182.7 329 182.5C328.7 182.5 328.4 182.5 328 182.5C328.3 181.8 329.8 177.5 327.6 173.8C327.2 173.2 326.4 171.8 324.6 170.9C321.7 169.5 318.9 170.8 318.5 171C317.3 171.6 316.5 172.4 316.2 172.7C314.8 174.3 314.8 175.7 314.2 176.7C314.1 176.8 314 176.9 313.9 177C314.4 178.8 314.7 180.6 314.9 182.2C304.9 188 294.9 193.7 284.8 199.5C285.2 198.5 285.6 197.6 286 196.6C286.5 195.5 286.9 194.3 287.4 193.2C287.6 192.7 287.8 192.2 288 191.6C288.4 190.6 288.8 189.6 289.2 188.6C289.7 187.4 290.2 186.1 290.7 184.9C290.8 184.6 290.9 184.3 291 184.1C291.6 182.7 292.2 181.3 292.7 179.9C292.1 181.3 291.6 182.7 291 184.1C290.9 184.4 290.8 184.7 290.7 184.9C290.2 186.1 289.7 187.3 289.2 188.6C288.6 190.1 288 191.6 287.3 193.2C286.8 194.3 286.4 195.5 285.9 196.6C285.5 197.6 285.1 198.5 284.7 199.5C289.3 189.5 293.8 179.6 298.4 169.6C298.5 166.6 299.5 164 299.8 163.2C300.2 162.1 301.1 159.9 303.2 158.4C303.2 158.4 304.3 157.2 305.8 157.2C306.2 157.3 306.4 157.3 306.6 157.3ZM326.3 177.2C326.5 180.5 325.2 182.9 321.7 182.9C318.2 182.9 317 180.4 316.7 177.3C316.4 173.9 318.5 172.7 320.6 172.4C324.8 172.1 326.1 174.1 326.3 177.2ZM272.3 53.9C280.7 60.7 280.4 70.6 272.3 78.3C272.3 70.6 272.3 62.3 272.3 53.9ZM271.3 71.7C269.1 72.8 266.8 75.1 264.8 74.8C263.9 74.7 263 73.9 262.2 72.9C262 72.7 261.8 72.4 261.6 72.2C261.4 71.9 261.2 71.7 261 71.4C260.9 71.3 260.8 71.1 260.7 71C260.5 70.7 260.3 70.5 260.1 70.3C260 70.2 259.9 70.1 259.8 70C260.1 69.7 260.5 69.4 260.8 69C261 68.8 261.2 68.5 261.5 68.3C261.8 68.1 261.9 67.8 262.2 67.6C263.2 66.6 264.2 65.7 265.3 65.6C267.3 65.5 269.5 67.9 271.6 69.1C271.4 70 271.3 70.9 271.3 71.7ZM235.9 99.5C231.3 89.4 228.3 79.3 230 68.4C231.7 57.4 238.8 51.3 251.9 49.2C263.7 47.4 264.9 45.9 266.2 61.7C261.1 62.5 257 64.4 256.8 69.9C256.6 75.2 260.5 77.3 265.6 78.4C264.9 83.5 261.7 87.4 258.1 89.5C251.2 93.6 243.6 96.2 235.9 99.5ZM248.7 126.6C248.9 128.1 249 129.7 249.4 132.9C252.4 130.3 254.6 128.7 256.5 126.7C258.4 124.7 260 122.4 262.1 119.9C266.6 128.7 268.6 137.6 267.9 147.1C267.6 151.3 265.6 154.9 261.8 155.6C259.8 156 256.1 153.5 254.9 151.4C250.8 143.8 247.3 135.8 248.7 126.6ZM186.4 213.4C192.8 214.4 199.1 215.9 205.5 216.3C214 216.8 222.5 216.1 230.9 216.7C235.8 217 240.7 219 245.6 220.2C245.6 220.7 245.6 221.2 245.6 221.8C225.8 219.6 206 217.4 186.3 215.2C186.3 214.5 186.4 214 186.4 213.4ZM14.8 168.3C14.5 168.2 14.2 168.2 13.9 168.2C12.7 168.1 11.4 168.1 10.4 167.2C10.1 167 10 166.7 9.80001 166.5C7.10001 162.2 8.00001 158.3 8.00001 158.2C8.50001 155.9 9.80001 154.3 10.4 153.6C11.2 152.6 12 152 12.7 151.6L21.2 147C22.3 146.3 23.4 145.7 24.5 145.2C27.3 144 30.3 143.3 33.7 143.2C34.6 143.2 35.6 142.7 36.3 142.1C43.8 136.4 51.2 130.7 59.1 124.7C57.6 120.9 50.2 119.5 50.2 112C52.7 112.7 54.6 112.9 56.3 113.7C58.8 114.9 61.1 116.7 64.1 114.7C64.6 114.3 66.2 115.2 67.1 115.7C70.3 117.8 73.5 119.9 76.6 122.1C82.6 126.3 88.8 129.4 95.6 131.1C99 131 102.7 131.2 108.5 131.5C117 131.9 121.9 132.2 128.5 133.9C137.4 136.2 143.3 139.6 145.3 140.8C150 143.6 152.4 145.1 154.7 148.1C159.8 154.7 159.7 162.6 159.6 167.9C159.5 174.7 157.8 181.2 157.3 182.9C157.3 183 157.3 183 157.3 183.1C156.7 185.6 156 188 155.3 190.4C154.5 195.3 155.3 197.5 153.9 201.6C154.7 207.6 159.1 211.1 168.2 213.2C182.3 216.4 196.7 218.4 211 220.5C221.5 222 232.2 222.5 242.7 224C249 224.9 253.8 222.6 257.9 218.3C265.4 210.3 268.8 200.2 271.8 189.9C272.1 188.8 272.4 187.7 272.7 186.4L275 179.3C276.4 172.1 277.7 164.9 279.1 157.7C279.3 156.7 279.4 155.6 279.2 154.7C274 138.9 271.3 122.3 262.2 107.8C259.2 102.9 260.2 97.4 262.6 92.4C264.1 89.3 267.3 87.6 270.5 89.3C274 91.1 277.5 93.3 280.1 96.2C282.7 99.2 285.3 102.3 287.6 105.4C287.7 105.3 287.8 105.3 287.9 105.3C288.1 105.3 289 106.6 290.8 109.2C292.5 111.8 293.4 113.1 294.5 115C294.8 115.6 296.7 118.7 298.3 122.4C301.3 129 302.9 135.4 303.8 139.3C303.7 139.3 303.6 139.3 303.5 139.3C303.8 140.7 304 142.1 304.1 143.5C304.6 148 305.7 152 299.4 154C297 154.8 295 159.1 294.1 162.1C292.2 168.2 291.7 174.8 289.4 180.7C283.6 195.8 277.3 210.6 270.9 225.4C269.9 227.8 267.7 230.1 265.5 231.4C254.6 237.5 242.4 238.8 230.2 239C202.7 239.5 175.5 235.4 149.4 227.6C137.1 223.9 128.4 215.8 122.8 208.4C117.7 204.6 117.9 201.3 115 196.2C113.8 195.1 112.7 193.9 111.9 192.4C111.7 192.1 111.6 191.7 111.4 191.3C101.4 180.2 85.5 178.2 82.7 177.9C82.6 177.9 82.5 177.9 82.4 177.9C78.7 177.6 72.6 177.6 66.6 178C59.7 178.5 54.9 179.5 50.2 176.7C47.9 175.4 46.4 173.6 45.6 172.3L43 170.3C42.1 169.9 41.3 169.6 40.4 169.6C38.9 169.5 37.3 171.1 35.8 172C35.8 172.6 35.9 173.3 35.9 173.9C30 172.3 24 170.6 18 168.9C16.8 168.8 15.8 168.5 14.8 168.3ZM85.9 221.1C73 216.6 59.6 211.8 46.3 207.1C61.2 198.3 80.3 205.3 85.9 221.1ZM28.4 193.5C29.7 191.3 30.7 188.8 32.3 186.9C34.2 184.7 36.9 183.1 39 181C42.5 177.6 46.3 177.5 50.9 178.2C57.5 179.2 64.3 179.5 71 180C71.3 180.5 71.6 181 71.9 181.5C70.7 182.2 69.4 183.6 68.4 183.4C53.8 181.2 40.9 185 28.4 193.5ZM22.9 178.3C22 179.8 21.2 181.2 20.4 182.6C20 182.6 19.5 182.6 19.1 182.6C19.1 180.8 18.8 177.5 19.2 177.4C21.9 176.8 24.7 176.9 27.4 176.8C27.4 177.5 27.3 178.2 27.3 179C25.9 178.8 24.5 178.6 22.9 178.3ZM77.2 276.1C88.2 271.3 96.5 264.5 101.4 256C111.8 255.4 122.1 255.6 131.8 255C129.7 255 127 254.9 123.4 254.9C108.5 254.9 109 255.5 104 255.1C94.8 254.4 89.6 252.2 81.4 249.7C74.7 257.7 65.4 261 54.5 258.9C43.3 256.8 36.2 249.6 32.6 237.8C33.1 237.9 33.5 238 34 238.1C33.2 237.4 32.3 236.7 31.5 235.8C29.8 233.9 23.8 227.1 24.4 218.1C24.5 217 25.2 208.3 31 205.4C33.6 204.1 36 204.6 45.9 207.7C59 211.9 67.5 215.1 67.5 215.1C79.2 219.6 85 221.8 85.4 222C100 230.7 96.4 240.5 106.5 243.5C116.3 246.4 136.5 242.2 138.4 242.6C138.2 242.4 138.1 242.2 137.9 242C140.3 238 142.7 233.9 145.6 229C147.3 231.5 148.6 233.4 150.5 236.2C150.6 236.1 150.8 236 150.9 236C152.9 240.7 154.9 245.4 156.9 250.1C162.1 251.6 165.5 253.4 169 253.5C192.5 254.5 215.9 255.3 239.4 256.1C250 256.5 265.7 246.2 269.7 236.4C271 233.2 272.4 230 273.7 226.7C273.3 249.5 283.1 265.7 304.4 276.1C228.2 276.1 153.3 276.1 77.2 276.1ZM297.5 246.6C291.1 234.6 294.8 219 306.1 211.9C307.8 215.5 309.7 218.9 311.1 222.6C311.5 223.7 310.9 225.4 310.4 226.7C307.2 234.4 310.3 242.6 317.6 245.4C324.8 248.1 332.9 244.1 335.2 236.7C337.6 229.1 332.7 221.5 324.4 219.4C322.5 218.9 320.7 217.2 319.5 215.6C317.9 213.3 317 210.6 315.6 207.8C328.1 204 342.3 211.6 347 224.2C352.1 237.7 345.9 252.7 332.9 258.6C319.7 264.7 304.4 259.5 297.5 246.6Z" fill="white"/>
<path d="M347.1 224.1C342.4 211.5 328.2 203.8 315.7 207.7C317 210.5 318 213.2 319.6 215.5C320.8 217.1 322.6 218.8 324.5 219.3C332.8 221.4 337.7 228.9 335.3 236.6C333 244 324.9 248 317.7 245.3C310.4 242.6 307.2 234.3 310.5 226.6C311 225.3 311.6 223.6 311.2 222.5C309.8 218.9 307.9 215.4 306.2 211.8C294.9 218.9 291.2 234.5 297.6 246.5C304.5 259.4 319.8 264.6 333.1 258.5C346 252.6 352.2 237.6 347.1 224.1Z" fill="white"/>
<path d="M138.7 242.7C138.4 242.7 138.2 242.7 138.1 242.7C138.2 242.8 138.2 242.9 138.3 242.9C138.4 242.9 138.6 242.8 138.7 242.7Z" fill="white" stroke="black" stroke-width="5" stroke-miterlimit="10"/>
<path d="M60.9 219.3C56.2 217 51.2 215.2 46.4 213.3C51.2 215.3 56 217.1 60.7 219.3C63.8 220.8 66.7 223 66 227.3C65.3 231.8 61.8 232.9 58.2 233.5C56.7 233.8 55.2 233.7 53.3 233.8C55.2 233.7 56.8 233.8 58.4 233.5C62.1 232.8 65.6 231.8 66.4 227.3C67 223.1 64.1 220.9 60.9 219.3Z" fill="white" stroke="black" stroke-width="5" stroke-miterlimit="10"/>
<path d="M141.4 254.5C148 253.5 153.3 251.7 156.7 250.2C149 253.2 140.5 254.4 131.7 255C135.8 255 138 254.9 141.4 254.5Z" fill="white" stroke="black" stroke-width="5" stroke-miterlimit="10"/>
<path d="M140.8 241.6C143.9 239.9 147 238.2 150.3 236.4L150.2 236.3C148.5 237.3 147 238.1 145.7 238.8C142.6 240.6 140.9 241.5 140.8 241.6Z" fill="white" stroke="black" stroke-width="5" stroke-miterlimit="10"/>
<path d="M150.7 236.1C150.6 236.2 150.4 236.3 150.3 236.3L150.4 236.4C147.1 238.2 144 239.9 140.9 241.6C140.7 241.8 140 242.6 139 242.7C138.9 242.7 138.9 242.7 138.8 242.7C138.7 242.8 138.6 242.8 138.4 242.9C138.3 242.8 138.3 242.7 138.2 242.7C136.3 242.3 116.1 246.5 106.3 243.6C96.2 240.6 99.7 230.8 85.2 222.1C84.9 221.9 79 219.7 67.3 215.2C67.3 215.2 58.8 211.9 45.7 207.8C35.9 204.7 33.4 204.2 30.8 205.5C25 208.4 24.3 217.1 24.2 218.2C23.6 227.2 29.6 234.1 31.3 235.9C32.1 236.8 33 237.5 33.8 238.2C43.9 240.6 53.4 242.9 62.9 245C69.1 246.4 75.3 247.6 81.8 249C81.6 249.3 81.4 249.5 81.2 249.7C89.4 252.2 94.6 254.4 103.8 255.1C108.8 255.5 108.3 254.9 123.2 254.9C126.8 254.9 129.4 254.9 131.6 255C140.4 254.4 148.8 253.2 156.6 250.2C154.7 245.4 152.7 240.8 150.7 236.1ZM66.3 227.4C65.6 231.9 62.1 233 58.3 233.6C56.7 233.9 55.1 233.8 53.2 233.9H53.1C54.4 232.5 55.6 231.6 56.4 230.4C59.8 225.2 59.8 222.8 55 219.6C52.1 217.7 49.1 215.8 46.4 213.2C51.3 215.2 56.2 217 60.9 219.2C64.1 220.9 67 223.1 66.3 227.4ZM142.6 249.6C141.4 249.3 140.5 247.7 139.5 246.7C140.5 245.8 141.4 244.2 142.5 244.2C143.5 244.1 144.7 245.6 146.5 246.8C144.7 248.1 143.4 249.8 142.6 249.6Z" fill="white" stroke="black" stroke-width="5" stroke-miterlimit="10"/>
<path d="M265.6 78.5C260.5 77.4 256.6 75.3 256.8 70C257 64.5 261.1 62.6 266.2 61.8C264.9 45.9 263.7 47.4 251.9 49.3C238.9 51.3 231.8 57.5 230 68.5C228.3 79.4 231.3 89.5 235.9 99.6C243.6 96.3 251.2 93.7 258 89.7C261.7 87.5 264.9 83.6 265.6 78.5ZM249.8 75.4C249.4 79.7 245.6 82.9 241.2 82.5C236.9 82.1 233.6 78.3 233.8 74C234 69.6 238.2 65.9 242.6 66.4C247.2 66.7 250.3 70.7 249.8 75.4Z" fill="white"/>
<path d="M33.9 238.2C33.4 238.1 33 238 32.5 237.9C36.1 249.7 43.2 256.9 54.4 259C65.3 261 74.7 257.8 81.3 249.8C81.2 249.8 81.1 249.7 81 249.7C53 241 42.9 245.3 33.9 238.2Z" fill="white"/>
<path d="M63 245C53.5 242.8 43.9 240.6 33.9 238.2C42.9 245.4 53 241.1 81 249.6C81.1 249.6 81.2 249.7 81.3 249.7C81.5 249.5 81.7 249.2 81.9 249C75.4 247.6 69.2 246.4 63 245Z" fill="white"/>
<path d="M261.9 155.7C265.7 155 267.7 151.4 268 147.2C268.7 137.7 266.7 128.8 262.2 120C260.2 122.5 258.6 124.8 256.6 126.8C254.7 128.8 252.4 130.4 249.5 133C249.1 129.8 249 128.3 248.8 126.7C247.3 135.9 250.9 143.9 255 151.5C256.1 153.6 259.8 156.1 261.9 155.7Z" fill="white"/>
<path d="M46.2 207.1C59.5 211.8 72.9 216.5 85.8 221.1C80.3 205.3 61.2 198.3 46.2 207.1Z" fill="white"/>
<path d="M284.9 199.6C285.3 198.6 285.7 197.7 286.1 196.7C285.7 197.7 285.3 198.6 284.9 199.6Z" fill="white"/>
<path d="M291.2 184.3C291.8 182.9 292.3 181.5 292.9 180.1C292.3 181.4 291.7 182.8 291.2 184.3Z" fill="white"/>
<path d="M286.1 196.7C286.6 195.6 287 194.4 287.5 193.3C287 194.4 286.5 195.6 286.1 196.7Z" fill="white"/>
<path d="M290.8 185.1C290.9 184.8 291 184.5 291.1 184.3C291 184.5 290.9 184.8 290.8 185.1Z" fill="white"/>
<path d="M289.3 188.8C289.8 187.6 290.3 186.4 290.8 185.1C290.3 186.3 289.8 187.5 289.3 188.8Z" fill="white"/>
<path d="M288.1 191.8C287.9 192.3 287.7 192.8 287.5 193.4C288.1 191.9 288.8 190.3 289.4 188.8C288.9 189.8 288.5 190.8 288.1 191.8Z" fill="white"/>
<path d="M66 227.4C66.7 223.1 63.9 220.9 60.7 219.4C56.1 217.1 51.2 215.3 46.4 213.4C49.1 215.9 52.2 217.8 55.2 219.8C60.1 223 60 225.3 56.6 230.6C55.8 231.8 54.6 232.7 53.3 234.1C55.1 234 56.7 234.1 58.2 233.8C61.8 232.9 65.2 231.8 66 227.4Z" fill="white"/>
<path d="M56.6 230.4C60 225.1 60.1 222.8 55.2 219.6C52.2 217.7 49.2 215.8 46.4 213.2C49.1 215.7 52.1 217.6 55 219.6C59.8 222.8 59.8 225.1 56.4 230.4C55.6 231.6 54.4 232.5 53.1 233.9H53.2C54.6 232.5 55.8 231.6 56.6 230.4Z" fill="white"/>
<path d="M245.6 220.1C240.7 218.9 235.9 217 230.9 216.6C222.5 216 213.9 216.8 205.5 216.2C199.1 215.8 192.8 214.3 186.4 213.3C186.3 213.8 186.3 214.4 186.2 214.9C206 217.1 225.8 219.3 245.5 221.5C245.6 221.2 245.6 220.6 245.6 220.1Z" fill="white"/>
<path d="M272.3 53.9C272.3 62.3 272.3 70.6 272.3 78.3C280.4 70.6 280.7 60.7 272.3 53.9Z" fill="white"/>
<path d="M262 67.6C261.8 67.8 261.6 68.1 261.3 68.3C261 68.5 260.9 68.8 260.6 69C260.3 69.4 259.9 69.7 259.6 70C259.7 70.1 259.8 70.2 259.9 70.3C260.1 70.5 260.3 70.8 260.5 71C260.6 71.1 260.7 71.3 260.8 71.4C261 71.7 261.2 71.9 261.4 72.2C261.6 72.5 261.8 72.7 262 72.9C262.8 73.9 263.7 74.6 264.6 74.8C266.6 75 268.9 72.8 271.1 71.7C271.1 70.8 271.2 70 271.2 69.1C269.1 67.8 266.9 65.5 264.9 65.6C264.1 65.7 263.1 66.5 262 67.6Z" fill="white"/>
<path d="M260.6 71.1C260.4 70.8 260.2 70.6 260 70.4C260.2 70.6 260.4 70.8 260.6 71.1Z" fill="white"/>
<path d="M259.7 70C259.8 70.1 259.9 70.2 260 70.3C259.9 70.2 259.8 70.1 259.7 70Z" fill="white"/>
<path d="M262.2 73C262 72.8 261.8 72.5 261.6 72.3C261.8 72.5 262 72.7 262.2 73Z" fill="white"/>
<path d="M261.6 72.2C261.4 71.9 261.2 71.7 261 71.4C261.1 71.7 261.3 72 261.6 72.2Z" fill="white"/>
<path d="M320.5 172.4C318.4 172.7 316.3 173.9 316.6 177.3C316.9 180.4 318.1 182.9 321.6 182.9C325.1 182.9 326.4 180.4 326.2 177.2C326.1 174.1 324.8 172.1 320.5 172.4Z" fill="white"/>
<path d="M27.4 176.9C24.6 177 21.8 177 19.2 177.5C18.8 177.6 19.1 180.9 19.1 182.7C19.5 182.7 20 182.7 20.4 182.7C21.2 181.3 22 179.9 22.9 178.4C24.5 178.7 25.9 178.9 27.3 179.1C27.3 178.3 27.3 177.6 27.4 176.9Z" fill="white"/>
<path d="M139.5 246.6C140.5 247.6 141.4 249.3 142.6 249.5C143.4 249.7 144.7 248.1 146.5 246.7C144.7 245.4 143.5 244 142.5 244.1C141.4 244.2 140.5 245.7 139.5 246.6Z" fill="white"/>
<path d="M242.7 66.3C238.3 65.9 234.1 69.5 233.9 73.9C233.7 78.2 237 82.1 241.3 82.4C245.7 82.8 249.5 79.7 249.9 75.3C250.3 70.7 247.2 66.7 242.7 66.3Z" fill="white"/>
<path d="M303.4 158.5C301.3 160 300.4 162.2 300 163.3C299.7 164.1 298.7 166.8 298.6 169.7C294 179.7 289.5 189.6 284.9 199.6C294.9 193.8 304.9 188.1 315 182.3C314.8 180.7 314.5 179 314 177.1C314.1 177 314.2 176.9 314.3 176.8C314.9 175.8 314.8 174.4 316.3 172.8C316.6 172.5 317.4 171.7 318.6 171.1C319 170.9 321.9 169.6 324.7 171C326.5 171.8 327.3 173.3 327.7 173.9C329.9 177.6 328.4 181.9 328.1 182.6C328.4 182.6 328.7 182.6 329.1 182.6C328.9 182.8 328.7 183 328.5 183.3C336.8 183.1 345.1 182.8 353.3 182.6C353.2 182.4 353.1 182.2 353 182C353.1 182 353.2 182 353.3 182C349.6 173.9 344 167.8 335.8 163.4C331.5 161.1 327 159.6 322.5 158.8C315.2 156.7 308.7 156.2 306.7 157.4C306.5 157.4 306.3 157.4 306.1 157.4C304.5 157.3 303.4 158.5 303.4 158.5Z" fill="white"/>
<path d="M286.8 138.1C286.8 138.2 286.7 138.6 287 138.9C287.3 139.2 287.7 139.2 287.8 139.1C288.6 139.1 294.7 139.1 303.2 139.1C300.9 126.3 295 115.3 287.4 105.2C284.6 107.2 287 136.2 286.8 138.1Z" fill="white"/>
<path d="M303.6 139.2C302.8 135.3 301.1 128.9 298.1 122.3C296.5 118.7 294.6 115.5 294.3 114.9C293.2 113 292.3 111.7 290.6 109.1C288.9 106.5 288 105.2 287.7 105.2C287.6 105.2 287.5 105.2 287.4 105.3C295 115.4 300.9 126.4 303.2 139.2C303.4 139.2 303.5 139.2 303.6 139.2Z" fill="white"/>
<path d="M115.5 196.9L115.6 197C116.6 197.9 117.5 198.7 118.5 199.6C119.9 200.9 121.4 202.3 123.3 202.9C125.1 203.5 127.4 203.3 128.7 201.8C130.2 200 129.7 197.4 129.1 195.2C128.1 191.4 126.8 187.2 123.3 185.4C122.1 184.8 120.7 184.5 119.4 184.5C117.2 184.3 114.9 184.6 112.7 185.2C112 185.4 111.3 185.7 110.8 186.3L110.9 186.2C111.3 185.9 111.9 186 112.5 186.1C116.2 186.9 120.2 187.8 122.7 190.6C124.4 192.5 125.2 195.1 125.7 197.6C125.9 198.6 125.9 200 124.9 200.3C124.4 200.4 123.9 200.2 123.5 200C119 197.9 116.2 193.4 113.7 189.2C116.6 191.2 119.4 193.5 121.9 196.1C119.4 193.6 116.6 191.3 113.7 189.2C116.3 193.4 119.1 197.8 123.5 200C123.9 200.2 124.4 200.4 124.9 200.3C125.9 200 126 198.6 125.7 197.6C125.2 195.1 124.4 192.5 122.7 190.6C120.2 187.8 116.2 186.9 112.5 186.1C112 186 111.4 185.9 110.9 186.2L110.8 186.3C110.7 186.4 110.6 186.6 110.5 186.7C110.5 186.7 110.5 186.8 110.5 186.9C110.4 187.2 110.4 187.6 110.5 187.9C111.5 189.3 112.3 190.9 114.3 194C114.2 194 114.7 195.1 115.5 196.9Z" fill="white"/>
<path d="M110.5 186.7C110.6 186.5 110.7 186.4 110.8 186.3C110.7 186.4 110.6 186.5 110.5 186.7Z" fill="white"/>
<path d="M44.6 152.9C42.2 154.6 40.3 157.1 36.7 157.1C36.2 157.1 35.6 157.1 35 157C35.2 157.2 35.4 157.4 35.5 157.7C36.1 157.7 37 157.7 38.4 157.7C39.9 157.7 41.4 158.1 42.9 158C42.9 158 44.2 157.9 45.7 159C45.9 159.1 46.1 159.4 46.2 159.8C46.3 160.4 46.1 161.2 46 161.3C45.3 162.3 44.2 162.4 43.2 162.5C40.8 162.6 38.4 162.7 35.9 162.6C35.8 162.6 35.7 162.6 35.7 162.7C35 162.9 34.4 162.9 33.7 163C36.2 165.7 39 168.1 42.1 170L42.9 170.6C44 171.1 45 171.8 46.1 172.4C47.6 173.3 49 174.6 50.7 176C54.3 176.2 57.3 176.4 59.4 176.5C68.9 177.1 76.3 177.5 82.4 178.1C82.5 178.1 82.6 178.1 82.7 178.1C97.8 179.4 103.7 181.2 108.6 185.8C109.4 186.6 110 187.3 110.5 188C110.4 187.7 110.4 187.3 110.5 187C110.5 187.1 110.5 187.1 110.4 187.2C110.4 187.1 110.4 187.1 110.5 187C110.5 186.9 110.5 186.9 110.5 186.8C110.6 186.6 110.7 186.5 110.8 186.4C111.3 185.9 112 185.5 112.7 185.3C114.9 184.7 117.1 184.4 119.4 184.6C120.8 184.7 122.1 184.9 123.3 185.5C126.8 187.3 128.1 191.5 129.1 195.3C129.7 197.5 130.2 200.2 128.7 201.9C127.4 203.4 125.2 203.6 123.3 203C121.5 202.4 120 201 118.5 199.7C117.5 198.8 116.6 198 115.6 197.1L115.5 197C116.8 199.7 119.1 204 122.6 208.6C129.5 213.6 137.3 212.9 138.5 212.8C140.6 212.6 147.2 211.9 151.2 206.8C152.7 204.8 153.4 202.9 153.8 201.7C153.4 198.6 153.9 195 155.2 190.5C155.7 187.5 156.2 186.9 157.2 183.2C158 180 158.6 176.7 158.8 173.5C159.5 162.3 157.1 151.9 147.8 144C137.2 135.1 124.6 132.1 111.5 132.8C105.8 133.1 100.6 132.6 95.6 131.3C94.4 131.3 93.3 131.4 92.1 131.5C92 131.4 72 133.4 44.6 152.9ZM82.2 177.8L80 177.7C79.4 177.7 78.9 177.6 78.2 177.6L80 177.7C80.7 177.7 81.4 177.8 82.2 177.8L83.7 177.9C83.1 177.9 82.6 177.8 82.2 177.8Z" fill="white"/>
<path d="M82.2 177.8C81.5 177.8 80.8 177.7 80 177.7L82.2 177.8Z" fill="white"/>
<path d="M80 177.7L78.2 177.6C78.8 177.7 79.4 177.7 80 177.7Z" fill="white"/>
<path d="M114.9 196.3C117.8 201.3 117.5 204.7 122.7 208.5C119.2 203.9 116.8 199.6 115.6 196.9C115.3 196.7 115.1 196.5 114.9 196.3Z" fill="white"/>
<path d="M114.2 194C112.2 190.9 111.4 189.3 110.4 187.9C110.4 188 110.4 188.1 110.5 188.2C110.7 189.3 110.9 190.4 111.3 191.4C111.8 192 112.3 192.5 112.8 193.1C113.7 194.2 114.3 195.2 114.9 196.2C115.1 196.4 115.3 196.6 115.5 196.8C114.7 195.1 114.2 194 114.2 194Z" fill="white"/>
<path d="M153.8 201.5C155.2 197.4 154.4 195.2 155.2 190.3C153.9 194.8 153.4 198.5 153.8 201.5Z" fill="white"/>
<path d="M83.6 177.9L82.1 177.8C82.6 177.8 83.1 177.9 83.6 177.9Z" fill="white"/>
<path d="M111.5 132.7C124.6 132 137.2 135 147.8 143.9C157.1 151.7 159.4 162.1 158.8 173.4C158.6 176.6 158 179.9 157.2 183.1C157.2 183 157.2 183 157.2 182.9C157.7 181.2 159.4 174.7 159.5 167.9C159.6 162.6 159.7 154.7 154.6 148.1C152.3 145.1 149.9 143.6 145.2 140.8C143.2 139.6 137.3 136.2 128.4 133.9C121.8 132.2 116.9 132 108.4 131.5C102.6 131.2 98.9 131 95.5 131.1C100.6 132.4 105.8 133 111.5 132.7Z" fill="white"/>
<path d="M110.5 187.9C110 187.2 109.4 186.5 108.6 185.7C103.8 181.1 97.8 179.4 82.7 178C85.5 178.3 101.4 180.2 111.4 191.4C111 190.4 110.8 189.3 110.6 188.2C110.5 188.1 110.5 188 110.5 187.9Z" fill="white"/>
<path d="M50.7 175.9C48.9 174.5 47.6 173.2 46.1 172.3C45.1 171.7 44 171 42.9 170.5L45.5 172.5C46.4 173.8 47.9 175.5 50.1 176.9C54.8 179.7 59.6 178.7 66.5 178.2C72.5 177.7 78.7 177.7 82.3 178.1C76.3 177.6 68.8 177.1 59.3 176.5C57.2 176.3 54.3 176.2 50.7 175.9Z" fill="white"/>
<path d="M30.6 157.3C30.9 157.2 31.2 157.1 31.5 157.1C31.2 157.1 30.9 157.1 30.6 157.3Z" fill="white"/>
<path d="M36.8 162C36.6 162.3 36.3 162.4 35.9 162.5C38.3 162.6 40.7 162.5 43.2 162.4C44.2 162.4 45.2 162.3 46 161.2C46.1 161.1 46.4 160.4 46.2 159.7C46.1 159.2 45.8 159 45.7 158.9C44.3 157.8 42.9 157.9 42.9 157.9C41.4 158 39.9 157.6 38.4 157.6C37 157.6 36.1 157.6 35.5 157.6C36 158.3 36.4 159.2 36.7 160C36.9 160.7 37.2 161.5 36.8 162Z" fill="white"/>
<path d="M32.4 157.1C33.1 156.9 34 156.9 34.9 156.9C34.9 156.9 34.9 156.9 34.8 156.8C33.7 156.8 32.5 156.7 31.4 156.9C31.8 157 32.1 157.1 32.4 157.1Z" fill="white"/>
<path d="M34.6 156.6C34.7 156.7 34.8 156.8 34.9 156.9C35 156.9 35 156.9 35.1 156.9L34.6 156.6Z" fill="white"/>
<path d="M32.2 162.2C31 162 29.6 161.3 29.3 159.5C29.3 159.4 29.3 159.1 29.4 158.8C29.6 157.9 30.2 157.6 30.4 157.4C30.4 157.4 30.5 157.4 30.5 157.3C30.4 157.3 30.3 157.4 30.2 157.4C29.8 157.6 29.4 157.8 29.1 158.1C28.7 158.6 28.6 159.2 28.6 159.8C28.6 160.4 28.7 161 29 161.5C29.5 162.3 30.6 162.7 31.5 162.8C32.1 162.9 32.8 162.9 33.5 162.9C33.3 162.7 33.2 162.5 33 162.3C32.8 162.3 32.5 162.2 32.2 162.2Z" fill="white"/>
<path d="M33.4 155.8L34.6 156.6C34.2 156.3 33.8 156 33.4 155.8Z" fill="white"/>
<path d="M35.6 162.6C35.7 162.6 35.8 162.6 35.8 162.5C34.9 162.5 34 162.4 33 162.3C33.2 162.5 33.3 162.7 33.5 162.9C34.3 162.8 35 162.8 35.6 162.6Z" fill="white"/>
<path d="M32.4 157.1C33 157.2 33.5 157.4 34 157.6C34.2 157.6 34.1 157.6 35.4 157.6C35.2 157.4 35.1 157.1 34.9 156.9C34.1 156.9 33.2 156.9 32.4 157.1Z" fill="white"/>
<path d="M29.5 158.7C29.4 159 29.4 159.4 29.4 159.4C29.6 161.3 31.1 161.9 32.3 162.1C32.6 162.1 32.9 162.2 33.2 162.2C32.9 161.8 32.5 161.5 32.2 161.1C31.6 160.3 30.9 159.4 31.1 158.5C31.3 157.7 31.8 157.3 32.5 157.1C32.2 157 31.9 157 31.6 157C31.3 157.1 31 157.1 30.7 157.2C30.7 157.2 30.6 157.2 30.6 157.3C30.3 157.5 29.7 157.8 29.5 158.7Z" fill="white"/>
<path d="M32.4 157.1C31.7 157.3 31.2 157.7 31 158.5C30.8 159.5 31.4 160.4 32.1 161.1C32.4 161.5 32.8 161.9 33.1 162.2C34 162.3 34.9 162.4 35.9 162.4C36.2 162.3 36.6 162.2 36.8 161.9C37.2 161.3 37 160.5 36.7 159.9C36.4 159.1 36 158.3 35.5 157.5C34.2 157.5 34.2 157.5 34.1 157.5C33.5 157.5 33 157.3 32.4 157.1Z" fill="white"/>
<path d="M19.5 164.2C21 160.2 21.7 159.2 22.1 156.7C22.4 154.8 22.2 154.5 22.4 152.4C22.5 151.3 22.7 150.3 23 149.4C21.9 151.6 20.9 153.9 20.2 156.3C19.1 160 18.6 164 17.3 167.7C18.6 164 19 160.1 20.2 156.3C20.9 153.9 21.9 151.6 23 149.4C23.4 147.7 24 146.3 24.5 145.1L21.2 146.9C18.9 148.4 16.8 150.3 14.8 152.5C12.5 155 7.50004 156 12.7 160.4C12.9 160.6 12.1 162.1 11.8 163C11.4 164.2 11 165.4 10.5 167.1C12 167.5 13.5 167.9 14.9 168.3C15.7 168.4 16.7 168.7 17.9 169.1C18.4 167 19.1 165.4 19.5 164.2Z" fill="white"/>
<path d="M11.7 163C12 162.1 12.9 160.6 12.6 160.4C7.39998 156.1 12.4 155 14.7 152.5C16.7 150.3 18.8 148.4 21.1 146.9L12.6 151.5C12 151.9 11.2 152.6 10.3 153.5C9.69998 154.2 8.49998 155.7 7.89998 158.1C7.89998 158.1 6.99998 162 9.69998 166.4C9.79998 166.6 9.99998 166.9 10.3 167.1C11.3 168 12.5 168 13.8 168.1C14.1 168.1 14.4 168.2 14.7 168.2C13.2 167.8 11.8 167.4 10.3 167C10.9 165.4 11.3 164.2 11.7 163Z" fill="white"/>
<path d="M267.6 85.6C271.1 87.3 275.6 88.4 278.5 91.2C295.3 107 306.3 125.9 307.8 149.5C308 153.4 309 154.6 313.1 155.1C324.4 156.6 335.8 158.2 344.8 166.5C350.9 172.1 355.6 178.5 357.7 187.1C350 187.1 342.9 187.1 335.7 187.1C355.3 195.7 367.2 210 367.8 231.7C368.4 253.3 357.1 268 337.8 277.5C344.5 277.5 351.2 277.5 357.9 277.5C361.7 277.5 365.6 277.6 369.4 277.5C372.8 277.4 373.4 278.9 372.3 282C248.9 282 125.5 282 2.00001 282C0.70001 278.5 1.90001 277.4 5.30001 277.5C16.6 277.6 28 277.5 39.3 277.5C40.9 277.5 42.5 277.5 44.1 277.5C36.3 273.3 29.2 268.7 23.8 261.8C16.8 253 13.3 243 13.1 231.8C13 229.2 12.2 226.6 11.6 223.9C8.00001 225.9 5.50001 227.3 2.10001 229.1C5.80001 218.9 9.50001 210.2 12 201.1C14.5 192 15.9 182.5 17.9 172.6C15.7 172 12.8 171.6 10.1 170.4C8.60001 169.7 6.90001 168.1 6.60001 166.6C4.90001 158.3 8.40001 151.2 16.1 147.8C21.5 145.4 27.1 143.6 32.5 141.5C33.7 141 34.9 140.4 35.9 139.6C39 137.1 41.8 134.2 45 131.9C48.2 129.6 51.8 127.8 56.4 125C54.5 123.5 52.6 122.4 51.1 120.7C49.7 119.1 48.5 117.2 47.9 115.2C46.4 110.7 48.3 108.8 52.9 110.1C56 111 58.9 112.5 62 113.8C63 104.7 68.7 101 77.2 103.9C95.1 109.9 113.3 114.5 132.1 116.4C142.5 117.4 153 117.7 163.5 118.1C178.5 118.7 186.3 124.7 190.2 139.3C191.2 143.1 191.7 147.1 192.4 151.3C186.1 152.9 185.9 156.6 187.9 161.5C188.5 163 187.9 165.1 187.5 166.8C186.1 172.6 184.4 178.4 183.1 184.2C181.8 190 183 195.1 185.7 200.8C188.9 207.2 193.3 209.1 199.5 209.9C210.9 211.3 222.2 213 233.6 214.4C240.9 215.3 241.5 215.3 243.4 208C246.7 195.5 249.6 182.9 252.2 170.3C253.9 161.8 251.4 153.6 248.5 145.6C244.4 134.4 241.1 122.9 237.4 111.5C234.1 101.1 229.8 90.9 227.6 80.2C224 62.2 234.5 49.2 252.7 47.2C254.7 47 256.7 46.7 258.7 46.5C268.9 45.7 278.5 52.6 281 62.5C283.3 71.4 277.5 81.7 268 85.7C267.5 85.6 267.1 85.9 267.6 85.6ZM273 186.9C272.7 188.2 272.4 189.3 272.1 190.4C269.1 200.7 265.7 210.8 258.2 218.8C254.1 223.1 249.4 225.4 243 224.5C232.5 223 221.8 222.5 211.3 221C197 218.9 182.6 216.9 168.5 213.7C154.8 210.6 151.8 204.2 155.6 190.9C157.2 185.3 158.9 179.6 159.2 173.9C159.9 162.7 157.5 152.3 148.2 144.4C137.6 135.5 125 132.5 111.9 133.2C98.6 133.9 87.5 129.9 77 122.6C73.9 120.4 70.7 118.3 67.5 116.2C66.6 115.6 65 114.8 64.5 115.2C61.5 117.2 59.2 115.4 56.7 114.2C55 113.4 53.1 113.2 50.6 112.5C50.6 120 58 121.4 59.5 125.2C51.6 131.2 44.2 136.9 36.7 142.6C36 143.2 35 143.7 34.1 143.7C26.3 143.8 20.4 147.4 15.2 153C12.9 155.5 7.90001 156.5 13.1 160.9C13.3 161.1 12.5 162.6 12.2 163.5C11.8 164.7 11.4 165.9 10.9 167.6C19.6 170 27.9 172.3 36.2 174.6C36.2 174 36.1 173.3 36.1 172.7C37.7 171.8 39.3 170.2 40.7 170.3C42.7 170.4 44.6 171.8 46.5 172.8C48 173.7 49.4 175 51.1 176.4C54.7 176.6 57.7 176.8 59.8 176.9C93.2 178.9 102.2 179.7 109 186.2C111.5 188.6 111.7 189.8 114.7 194.5C114.7 194.5 124.5 220.6 149.7 228.1C175.9 235.9 203 240 230.5 239.5C242.7 239.3 254.8 237.9 265.8 231.9C268.1 230.7 270.2 228.3 271.2 225.9C277.6 211.1 283.9 196.2 289.7 181.2C292 175.3 292.4 168.7 294.4 162.6C295.4 159.5 297.3 155.2 299.7 154.5C306 152.5 304.9 148.5 304.4 144C302.2 125.3 292.5 110.4 280.4 96.7C277.9 93.8 274.3 91.6 270.8 89.8C267.5 88.1 264.4 89.8 262.9 92.9C260.5 97.8 259.5 103.4 262.5 108.3C271.5 122.8 274.3 139.4 279.5 155.2C279.8 156.1 279.6 157.2 279.4 158.2C278.1 165.4 276.7 172.6 275.3 179.8L273 186.9ZM78.6 178.4C80.7 178.5 82.1 178.6 84 178.7L78.6 178.4ZM274 227.5C272.7 230.7 271.3 233.9 270 237.2C266 247.1 250.3 257.3 239.7 256.9C216.2 256.1 192.7 255.4 169.3 254.3C165.8 254.1 162.3 252.4 157.2 250.9C140.9 257.2 121.7 255.7 101.8 256.8C96.9 265.3 88.7 272.1 77.6 276.9C153.7 276.9 228.7 276.9 304.7 276.9C283.4 266.5 273.5 250.3 274 227.5ZM316.1 208.4C317.4 211.2 318.4 213.9 320 216.2C321.2 217.8 323 219.5 324.9 220C333.2 222.1 338.1 229.6 335.7 237.3C333.4 244.7 325.3 248.7 318.1 246C310.8 243.3 307.6 235 310.9 227.3C311.4 226 312 224.3 311.6 223.2C310.2 219.6 308.3 216.1 306.6 212.5C295.3 219.6 291.6 235.2 298 247.2C304.9 260.1 320.2 265.3 333.5 259.2C346.5 253.2 352.6 238.2 347.6 224.8C342.8 212.2 328.6 204.6 316.1 208.4ZM266.6 62.6C265.3 46.7 264.1 48.2 252.3 50.1C239.3 52.1 232.2 58.3 230.4 69.3C228.7 80.2 231.7 90.3 236.3 100.4C244 97.1 251.6 94.5 258.4 90.5C262 88.4 265.2 84.5 265.9 79.4C260.8 78.3 256.9 76.2 257.1 70.9C257.4 65.3 261.5 63.3 266.6 62.6ZM82.4 249.7C75.9 248.3 69.7 247.1 63.5 245.7C53.5 243.4 43.6 241 33 238.6C36.6 250.4 43.7 257.6 54.9 259.7C66.1 261.8 75.7 258.3 82.4 249.7ZM249.2 127.4C247.7 136.6 251.3 144.6 255.4 152.2C256.6 154.3 260.3 156.8 262.3 156.4C266.1 155.7 268.1 152.1 268.4 147.9C269.1 138.4 267.1 129.5 262.6 120.7C260.6 123.2 259 125.5 257 127.5C255.1 129.5 252.8 131.1 249.9 133.7C249.5 130.5 249.3 128.9 249.2 127.4ZM46.7 207.9C60 212.6 73.4 217.3 86.3 221.9C80.8 206 61.7 199 46.7 207.9ZM72.4 182.2C72.1 181.7 71.8 181.2 71.5 180.7C64.8 180.1 58 179.9 51.4 178.9C46.8 178.2 43 178.3 39.5 181.7C37.4 183.8 34.7 185.4 32.8 187.6C31.1 189.5 30.2 192 28.9 194.2C41.3 185.7 54.3 181.9 68.9 184.1C69.9 184.3 71.2 182.9 72.4 182.2ZM53.7 234.7C55.6 234.6 57.2 234.7 58.8 234.4C62.5 233.7 66 232.7 66.8 228.2C67.5 223.9 64.6 221.7 61.4 220.2C56.7 217.9 51.7 216.1 46.9 214.2C49.6 216.7 52.7 218.6 55.7 220.6C60.6 223.8 60.5 226.1 57.1 231.4C56.2 232.4 55 233.3 53.7 234.7ZM246 222.4C246 221.9 246 221.4 246 220.8C241.1 219.6 236.3 217.7 231.3 217.3C222.9 216.7 214.3 217.5 205.9 216.9C199.5 216.5 193.2 215 186.8 214C186.7 214.5 186.7 215.1 186.6 215.6C206.4 218 226.2 220.2 246 222.4ZM272.8 79.1C280.9 71.4 281.2 61.5 272.8 54.7C272.8 63 272.8 71.3 272.8 79.1ZM271.7 72.5C271.7 71.6 271.8 70.8 271.8 69.9C269.7 68.6 267.5 66.3 265.5 66.4C263.6 66.5 261.9 69.2 260.1 70.8C261.8 72.5 263.3 75.4 265.2 75.6C267.2 75.8 269.5 73.6 271.7 72.5ZM320.9 173.1C318.8 173.4 316.7 174.6 317 178C317.3 181.1 318.5 183.6 322 183.6C325.5 183.6 326.8 181.1 326.6 177.9C326.5 174.8 325.2 172.9 320.9 173.1ZM145.8 229.9C142.9 234.8 140.5 238.8 138.1 242.9C138.3 243.2 138.5 243.5 138.8 243.8C142.7 241.7 146.6 239.6 150.8 237.3C148.8 234.3 147.5 232.4 145.8 229.9ZM27.7 179.8C27.7 179.1 27.8 178.4 27.8 177.6C25 177.7 22.2 177.7 19.6 178.2C19.2 178.3 19.5 181.6 19.5 183.4C19.9 183.4 20.4 183.4 20.8 183.4C21.6 182 22.4 180.6 23.3 179.1C24.9 179.3 26.3 179.5 27.7 179.8ZM146.9 247.5C145.1 246.2 143.9 244.8 142.9 244.9C141.9 245 140.9 246.5 139.9 247.4C140.9 248.4 141.8 250.1 143 250.3C143.8 250.5 145.1 248.9 146.9 247.5Z" fill="black"/>
<path d="M316.1 208.4C328.6 204.6 342.8 212.2 347.5 224.8C352.6 238.3 346.4 253.3 333.4 259.2C320.1 265.3 304.8 260.1 297.9 247.2C291.5 235.2 295.2 219.6 306.5 212.5C308.2 216.1 310.1 219.5 311.5 223.2C311.9 224.3 311.3 226 310.8 227.3C307.6 235 310.7 243.2 318 246C325.2 248.7 333.3 244.7 335.6 237.3C338 229.7 333.1 222.1 324.8 220C322.9 219.5 321.1 217.8 319.9 216.2C318.4 214 317.5 211.2 316.1 208.4Z" fill="white"/>
<path d="M157.1 250.9C153.6 252.4 148.4 254.3 141.8 255.2C136.7 255.9 134.2 255.6 123.8 255.6C108.9 255.6 109.4 256.2 104.4 255.8C95.1 255.1 89.9 252.9 81.4 250.3C50.8 241 41.5 247 31.8 236.6C30.1 234.7 24.1 227.9 24.7 218.9C24.8 217.8 25.5 209.1 31.3 206.2C33.9 204.9 36.3 205.4 46.2 208.5C59.3 212.7 67.8 215.9 67.8 215.9C79.5 220.4 85.3 222.6 85.7 222.8C100.3 231.5 96.7 241.3 106.8 244.3C116.6 247.2 136.8 243 138.7 243.4C138.8 243.4 139.1 243.5 139.5 243.4C140.5 243.3 141.2 242.5 141.4 242.3C141.5 242.2 143.1 241.3 146.4 239.5C147.7 238.8 149.4 237.9 151.3 236.8C153.1 241.5 155.1 246.2 157.1 250.9Z" fill="white" stroke="black" stroke-width="5" stroke-miterlimit="10"/>
<path d="M266.6 62.6C261.5 63.4 257.4 65.3 257.2 70.8C257 76.1 260.9 78.2 266 79.3C265.3 84.4 262.1 88.3 258.5 90.4C251.7 94.4 244 97 236.4 100.3C231.8 90.2 228.8 80.1 230.5 69.2C232.2 58.2 239.3 52.1 252.4 50C264.1 48.2 265.3 46.7 266.6 62.6ZM241.6 83.2C246 83.6 249.8 80.5 250.2 76.1C250.7 71.4 247.5 67.4 243 67C238.6 66.6 234.4 70.2 234.2 74.6C234 79 237.4 82.8 241.6 83.2Z" fill="white"/>
<path d="M82.4 249.7C75.7 258.3 66.1 261.8 54.9 259.7C43.7 257.6 36.6 250.4 33 238.6C43.6 241.1 53.5 243.5 63.5 245.7C69.6 247.1 75.9 248.4 82.4 249.7Z" fill="white"/>
<path d="M249.2 127.4C249.4 128.9 249.5 130.5 249.9 133.7C252.9 131.1 255.1 129.5 257 127.5C258.9 125.5 260.5 123.2 262.6 120.7C267.1 129.5 269.1 138.4 268.4 147.9C268.1 152.1 266.1 155.7 262.3 156.4C260.3 156.8 256.6 154.3 255.4 152.2C251.2 144.6 247.7 136.6 249.2 127.4Z" fill="white"/>
<path d="M46.7 207.9C61.7 199.1 80.8 206.1 86.3 221.9C73.4 217.3 60 212.6 46.7 207.9Z" fill="white"/>
<path d="M285.3 200.3C288 193.6 290.8 186.8 293.3 180.8C291.7 184.7 290.1 188.6 288.5 192.5C287.4 195.1 286.4 197.7 285.3 200.3Z" fill="white"/>
<path d="M53.5 234.6C54.8 233.2 56 232.3 56.8 231.1C60.2 225.9 60.2 223.5 55.4 220.3C52.5 218.4 49.5 216.5 46.8 213.9C51.6 215.9 56.4 217.7 61.1 219.9C64.2 221.4 67.1 223.6 66.4 227.9C65.7 232.4 62.2 233.5 58.6 234.1C57 234.6 55.4 234.5 53.5 234.6Z" fill="black"/>
<path d="M246 222.4C226.2 220.2 206.4 218 186.7 215.8C186.8 215.3 186.8 214.7 186.9 214.2C193.3 215.2 199.6 216.7 206 217.1C214.5 217.6 223 216.9 231.4 217.5C236.3 217.8 241.2 219.8 246.1 221C246 221.4 246 221.9 246 222.4Z" fill="white"/>
<path d="M272.8 79.1C272.8 71.3 272.8 63 272.8 54.7C281.1 61.5 280.9 71.4 272.8 79.1Z" fill="#F4B62A"/>
<path d="M271.7 72.5C269.5 73.6 267.2 75.9 265.2 75.6C263.3 75.4 261.8 72.5 260.1 70.8C261.9 69.2 263.6 66.5 265.5 66.4C267.5 66.3 269.7 68.7 271.8 69.9C271.8 70.7 271.8 71.6 271.7 72.5Z" fill="white"/>
<path d="M320.9 173.1C325.2 172.9 326.5 174.8 326.7 177.9C326.9 181.2 325.6 183.6 322.1 183.6C318.6 183.6 317.4 181.1 317.1 178C316.7 174.6 318.9 173.4 320.9 173.1Z" fill="white"/>
<path d="M27.7 179.8C26.3 179.6 24.9 179.3 23.3 179.1C22.4 180.6 21.6 182 20.8 183.4C20.4 183.4 19.9 183.4 19.5 183.4C19.5 181.6 19.2 178.3 19.6 178.2C22.3 177.6 25.1 177.7 27.8 177.6C27.8 178.3 27.7 179.1 27.7 179.8Z" fill="white"/>
<path d="M146.9 247.5C145.1 248.9 143.9 250.5 143 250.3C141.8 250 140.9 248.4 139.9 247.4C140.9 246.5 141.8 244.9 142.9 244.9C143.9 244.8 145.1 246.2 146.9 247.5Z" fill="black"/>
<path d="M241.6 83.2C237.3 82.8 234 79 234.2 74.7C234.4 70.3 238.6 66.6 243 67.1C247.5 67.5 250.6 71.5 250.2 76.2C249.8 80.5 246 83.6 241.6 83.2Z" fill="black"/>
<path d="M353.7 182.7C350 174.6 344.4 168.5 336.2 164.1C331.9 161.8 327.4 160.3 322.9 159.5C315.6 157.4 309.1 156.9 307.1 158.1C306.9 158.1 306.7 158.1 306.5 158.1C305 158.1 303.9 159.3 303.9 159.3C301.8 160.8 300.9 163 300.5 164.1C300.2 164.9 299.2 167.6 299.1 170.5C294.5 180.5 290 190.4 285.4 200.4C295.4 194.6 305.4 188.9 315.5 183.1C315.3 181.5 315 179.8 314.5 177.9C314.6 177.8 314.7 177.7 314.8 177.6C315.4 176.6 315.3 175.2 316.8 173.6C317.1 173.3 317.9 172.5 319.1 171.9C319.5 171.7 322.4 170.4 325.2 171.8C327 172.6 327.8 174.1 328.2 174.7C330.4 178.4 328.9 182.7 328.6 183.4C328.9 183.4 329.2 183.4 329.6 183.4C329.4 183.6 329.2 183.8 329 184.1C337.3 183.9 345.6 183.6 353.8 183.4C353.7 183.2 353.6 183 353.5 182.8C353.5 182.7 353.6 182.7 353.7 182.7Z" fill="#F4B62A"/>
<path d="M288.2 106C284.9 106.3 287.5 136.9 287.3 138.9C287.3 139 287.2 139.4 287.5 139.7C287.8 140 288.2 140 288.3 139.9C289.1 139.9 295.4 139.9 304 139.9C303.2 136 301.5 129.6 298.5 123C296.9 119.4 295 116.2 294.7 115.6C293.6 113.7 292.7 112.4 291 109.8C289.3 107.3 288.4 105.9 288.2 106Z" fill="#F4B62A"/>
<path d="M42.5 170.6C38.8 168.2 35.4 165.3 32.6 161.9C32 161.1 31.3 160.2 31.5 159.3C32 157.2 35 157.8 37.1 157.8C40.7 157.8 42.6 155.3 45 153.6C72.5 134.1 92.5 132.1 92.5 132.1C97.1 131.6 101 131.8 108.9 132.2C117.4 132.6 122.3 132.9 128.9 134.6C137.8 136.9 143.7 140.3 145.7 141.5C150.4 144.3 152.8 145.8 155.1 148.8C160.2 155.4 160.1 163.3 160 168.6C159.9 175.4 158.2 181.9 157.7 183.6C156.7 187.4 156.1 188 155.7 191.1C154.9 196 155.7 198.2 154.3 202.3C153.9 203.4 153.2 205.4 151.7 207.4C147.7 212.5 141.1 213.2 139 213.4C137.8 213.5 130 214.3 123.1 209.2C117 204.7 118.6 200.8 113.2 194C103 180.8 84.5 179 82.8 178.9C79.1 178.6 73 178.6 66.9 179C60 179.5 55.2 180.5 50.5 177.7C48.2 176.4 46.7 174.6 45.9 173.3" fill="#F4B62A"/>
<path d="M34.4 158.3C34.6 158.4 34.5 158.3 38.7 158.4C40.2 158.4 41.7 158.8 43.2 158.7C43.2 158.7 44.5 158.6 46 159.7C46.2 159.8 46.4 160.1 46.5 160.5C46.6 161.1 46.4 161.9 46.3 162C45.6 163 44.5 163.1 43.5 163.2C39.9 163.4 36.2 163.6 32.6 163C31.4 162.8 30 162.1 29.7 160.3C29.7 160.2 29.7 159.9 29.8 159.6C30 158.7 30.6 158.4 30.8 158.2C32 157.4 33.4 158 34.4 158.3Z" fill="white"/>
<path d="M33.8 156.5C35.5 157.2 36.4 159 37.1 160.7C37.4 161.4 37.6 162.2 37.2 162.7C36.9 163 36.5 163.2 36.1 163.3C34.8 163.6 33.4 163.7 32.1 163.5C31.1 163.4 30.1 163 29.6 162.2C29.3 161.7 29.2 161.1 29.2 160.5C29.2 159.9 29.3 159.3 29.7 158.8C30 158.5 30.4 158.3 30.8 158.1C32.3 157.5 34 157.6 35.6 157.7" fill="black"/>
<path d="M24.9 145.9C24.1 147.6 23.2 150.1 22.8 153.2C22.6 155.3 22.8 155.6 22.5 157.5C22.1 160 21.4 161 19.9 165C19.5 166.1 18.9 167.8 18.2 169.9C16.6 169.3 15.3 169.1 14.4 169C13.2 168.9 11.9 168.9 10.9 168C10.6 167.8 10.5 167.5 10.3 167.3C7.60002 163 8.50002 159.1 8.50002 159C9.00002 156.7 10.3 155.1 10.9 154.4C11.7 153.4 12.5 152.8 13.2 152.4" fill="#F4B62A"/>
<path d="M23.2 145.1C21.3 148.6 19.4 152.3 18.2 156.2C17 160 16.6 164 15.3 167.8C14.9 169.1 15.8 170.5 17 170.9C18.4 171.3 19.6 170.4 20.1 169.2C21.3 165.6 21.8 161.7 22.9 158C24 154.4 25.7 151 27.5 147.7C29 144.8 24.7 142.3 23.2 145.1Z" fill="black"/>
<path d="M113.2 188.4C113.3 188 113.4 188 113 188.7C113.1 188.6 113.3 188.5 113.1 188.6C112.8 188.7 113.8 188.3 113.2 188.4C114.1 188.1 115 187.9 115.8 187.8C117.2 187.5 119 187.5 120.3 187.7C120.9 187.8 121.6 187.9 122.1 188.1C122.4 188.2 122.7 188.4 122.9 188.6C122.9 188.6 123.4 188.9 123.2 188.8C123.1 188.7 123.4 189 123.4 189C124.4 189.9 124.8 190.5 125.4 191.8C125.8 192.7 126.2 194 126.6 195.2C126.8 195.8 126.9 196.4 127.1 197C127.2 197.3 127.3 197.6 127.3 198C127.3 198.2 127.4 198.4 127.4 198.6C127.4 198.4 127.4 198.7 127.4 198.8C127.4 199.2 127.4 199.5 127.4 199.9C127.4 199.9 127.4 200.3 127.4 200.1C127.4 199.8 127.3 200.4 127.3 200.4C127.3 200.5 127.2 200.7 127.2 200.8C127.3 200.5 127.1 200.9 127.1 200.9C127.3 200.6 126.6 201.4 126.9 201.1C126.8 201.2 126.6 201.3 126.5 201.4C126.6 201.3 126.8 201.3 126.4 201.4C126.3 201.4 125.7 201.5 126 201.5C125.2 201.6 125.1 201.6 124.3 201.3C123.2 200.9 122.1 199.9 121.1 199.1C119.8 198 118.6 196.8 117.3 195.7C116.3 194.7 115.2 193.8 114.5 192.6C113.8 191.4 113.4 189.8 113.2 188.4C113.2 188.1 113.2 188.4 113.2 188.4C113.1 187.7 113.3 188.3 113.2 188.3C112.9 188.3 112.2 189.6 111.8 189.3C111.9 189.4 112.1 189.4 112.2 189.4C113 189.5 113.7 189.7 114.5 189.9C115.2 190.1 115.8 190.2 116.5 190.4C117.1 190.6 117.8 190.8 118.2 191C120.8 192.2 122.2 193.9 123.1 196.7C123.3 197.5 123.5 198.3 123.7 199.1C123.6 198.5 123.8 199.8 123.7 199.5C123.7 199.3 123.7 199.5 123.7 199.6C124 199.1 124.4 198.9 124.9 198.7C125.2 198.6 125.2 198.8 125.1 198.6C125 198.5 124.6 198.3 124.5 198.3C124.2 198.1 123.8 197.9 123.5 197.7C123 197.4 122.6 197 122 196.5C119.6 194.3 118 191.7 116.3 188.8C115.2 189.9 114 191.1 112.9 192.2C115.6 194.1 118.2 196.3 120.6 198.7C122.9 201 126.4 197.4 124.1 195.2C121.4 192.5 118.5 190.1 115.4 187.9C113.3 186.4 110.7 189.3 112 191.3C114 194.6 116.1 198 119.1 200.5C120.6 201.8 122.7 203.5 124.8 203.6C127.4 203.7 128.9 201.4 128.8 199C128.6 194.8 126.5 190.4 123 187.8C121.5 186.7 119.6 185.9 117.8 185.4C117 185.1 116.1 184.9 115.3 184.7C114.3 184.5 113.2 184.1 112.1 184.2C110.6 184.2 109.4 185 108.8 186.3C108.3 187.4 108.4 188.6 108.6 189.8C109 191.9 109.6 194 110.9 195.8C112.2 197.6 113.8 199 115.4 200.4C117 201.9 118.5 203.4 120.3 204.6C123.8 207 129.4 207.3 131.7 203.1C133.6 199.7 132.1 195.3 131 191.9C129.6 187.7 127 183.9 122.4 183C119.7 182.4 116.9 182.5 114.3 183.1C111.9 183.6 109.2 184.5 108.5 187.1C108.2 188.4 108.9 189.8 110.2 190.2C111.4 190.5 112.9 189.8 113.2 188.4Z" fill="black"/>
<path d="M267.6 85.6C271.1 87.3 275.6 88.4 278.5 91.2C295.3 107 306.3 125.9 307.8 149.5C308 153.4 309 154.6 313.1 155.1C324.4 156.6 335.8 158.2 344.8 166.5C350.9 172.1 355.6 178.5 357.7 187.1C350 187.1 342.9 187.1 335.7 187.1C355.3 195.7 367.2 210 367.8 231.7C368.4 253.3 357.1 268 337.8 277.5C344.5 277.5 351.2 277.5 357.9 277.5C361.7 277.5 365.6 277.6 369.4 277.5C372.8 277.4 373.4 278.9 372.3 282C248.9 282 125.5 282 2.00001 282C0.70001 278.5 1.90001 277.4 5.30001 277.5C16.6 277.6 28 277.5 39.3 277.5C40.9 277.5 42.5 277.5 44.1 277.5C36.3 273.3 29.2 268.7 23.8 261.8C16.8 253 13.3 243 13.1 231.8C13 229.2 12.2 226.6 11.6 223.9C8.00001 225.9 5.50001 227.3 2.10001 229.1C5.80001 218.9 9.50001 210.2 12 201.1C14.5 192 15.9 182.5 17.9 172.6C15.7 172 12.8 171.6 10.1 170.4C8.60001 169.7 6.90001 168.1 6.60001 166.6C4.90001 158.3 8.40001 151.2 16.1 147.8C21.5 145.4 27.1 143.6 32.5 141.5C33.7 141 34.9 140.4 35.9 139.6C39 137.1 41.8 134.2 45 131.9C48.2 129.6 51.8 127.8 56.4 125C54.5 123.5 52.6 122.4 51.1 120.7C49.7 119.1 48.5 117.2 47.9 115.2C46.4 110.7 48.3 108.8 52.9 110.1C56 111 58.9 112.5 62 113.8C63 104.7 68.7 101 77.2 103.9C95.1 109.9 113.3 114.5 132.1 116.4C142.5 117.4 153 117.7 163.5 118.1C178.5 118.7 186.3 124.7 190.2 139.3C191.2 143.1 191.7 147.1 192.4 151.3C186.1 152.9 185.9 156.6 187.9 161.5C188.5 163 187.9 165.1 187.5 166.8C186.1 172.6 184.4 178.4 183.1 184.2C181.8 190 183 195.1 185.7 200.8C188.9 207.2 193.3 209.1 199.5 209.9C210.9 211.3 222.2 213 233.6 214.4C240.9 215.3 241.5 215.3 243.4 208C246.7 195.5 249.6 182.9 252.2 170.3C253.9 161.8 251.4 153.6 248.5 145.6C244.4 134.4 241.1 122.9 237.4 111.5C234.1 101.1 229.8 90.9 227.6 80.2C224 62.2 234.5 49.2 252.7 47.2C254.7 47 256.7 46.7 258.7 46.5C268.9 45.7 278.5 52.6 281 62.5C283.3 71.4 277.5 81.7 268 85.7C267.5 85.6 267.1 85.9 267.6 85.6ZM273 186.9C272.7 188.2 272.4 189.3 272.1 190.4C269.1 200.7 265.7 210.8 258.2 218.8C254.1 223.1 249.4 225.4 243 224.5C232.5 223 221.8 222.5 211.3 221C197 218.9 182.6 216.9 168.5 213.7C154.8 210.6 151.8 204.2 155.6 190.9C157.2 185.3 158.9 179.6 159.2 173.9C159.9 162.7 157.5 152.3 148.2 144.4C137.6 135.5 125 132.5 111.9 133.2C98.6 133.9 87.5 129.9 77 122.6C73.9 120.4 70.7 118.3 67.5 116.2C66.6 115.6 65 114.8 64.5 115.2C61.5 117.2 59.2 115.4 56.7 114.2C55 113.4 53.1 113.2 50.6 112.5C50.6 120 58 121.4 59.5 125.2C51.6 131.2 44.2 136.9 36.7 142.6C36 143.2 35 143.7 34.1 143.7C26.3 143.8 20.4 147.4 15.2 153C12.9 155.5 7.90001 156.5 13.1 160.9C13.3 161.1 12.5 162.6 12.2 163.5C11.8 164.7 11.4 165.9 10.9 167.6C19.6 170 27.9 172.3 36.2 174.6C36.2 174 36.1 173.3 36.1 172.7C37.7 171.8 39.3 170.2 40.7 170.3C42.7 170.4 44.6 171.8 46.5 172.8C48 173.7 49.4 175 51.1 176.4C54.7 176.6 57.7 176.8 59.8 176.9C93.2 178.9 102.2 179.7 109 186.2C111.5 188.6 111.7 189.8 114.7 194.5C114.7 194.5 124.5 220.6 149.7 228.1C175.9 235.9 203 240 230.5 239.5C242.7 239.3 254.8 237.9 265.8 231.9C268.1 230.7 270.2 228.3 271.2 225.9C277.6 211.1 283.9 196.2 289.7 181.2C292 175.3 292.4 168.7 294.4 162.6C295.4 159.5 297.3 155.2 299.7 154.5C306 152.5 304.9 148.5 304.4 144C302.2 125.3 292.5 110.4 280.4 96.7C277.9 93.8 274.3 91.6 270.8 89.8C267.5 88.1 264.4 89.8 262.9 92.9C260.5 97.8 259.5 103.4 262.5 108.3C271.5 122.8 274.3 139.4 279.5 155.2C279.8 156.1 279.6 157.2 279.4 158.2C278.1 165.4 276.7 172.6 275.3 179.8L273 186.9ZM78.6 178.4C80.7 178.5 82.1 178.6 84 178.7L78.6 178.4ZM274 227.5C272.7 230.7 271.3 233.9 270 237.2C266 247.1 250.3 257.3 239.7 256.9C216.2 256.1 192.7 255.4 169.3 254.3C165.8 254.1 162.3 252.4 157.2 250.9C140.9 257.2 121.7 255.7 101.8 256.8C96.9 265.3 88.7 272.1 77.6 276.9C153.7 276.9 228.7 276.9 304.7 276.9C283.4 266.5 273.5 250.3 274 227.5ZM316.1 208.4C317.4 211.2 318.4 213.9 320 216.2C321.2 217.8 323 219.5 324.9 220C333.2 222.1 338.1 229.6 335.7 237.3C333.4 244.7 325.3 248.7 318.1 246C310.8 243.3 307.6 235 310.9 227.3C311.4 226 312 224.3 311.6 223.2C310.2 219.6 308.3 216.1 306.6 212.5C295.3 219.6 291.6 235.2 298 247.2C304.9 260.1 320.2 265.3 333.5 259.2C346.5 253.2 352.6 238.2 347.6 224.8C342.8 212.2 328.6 204.6 316.1 208.4ZM266.6 62.6C265.3 46.7 264.1 48.2 252.3 50.1C239.3 52.1 232.2 58.3 230.4 69.3C228.7 80.2 231.7 90.3 236.3 100.4C244 97.1 251.6 94.5 258.4 90.5C262 88.4 265.2 84.5 265.9 79.4C260.8 78.3 256.9 76.2 257.1 70.9C257.4 65.3 261.5 63.3 266.6 62.6ZM82.4 249.7C75.9 248.3 69.7 247.1 63.5 245.7C53.5 243.4 43.6 241 33 238.6C36.6 250.4 43.7 257.6 54.9 259.7C66.1 261.8 75.7 258.3 82.4 249.7ZM249.2 127.4C247.7 136.6 251.3 144.6 255.4 152.2C256.6 154.3 260.3 156.8 262.3 156.4C266.1 155.7 268.1 152.1 268.4 147.9C269.1 138.4 267.1 129.5 262.6 120.7C260.6 123.2 259 125.5 257 127.5C255.1 129.5 252.8 131.1 249.9 133.7C249.5 130.5 249.3 128.9 249.2 127.4ZM46.7 207.9C60 212.6 73.4 217.3 86.3 221.9C80.8 206 61.7 199 46.7 207.9ZM72.4 182.2C72.1 181.7 71.8 181.2 71.5 180.7C64.8 180.1 58 179.9 51.4 178.9C46.8 178.2 43 178.3 39.5 181.7C37.4 183.8 34.7 185.4 32.8 187.6C31.1 189.5 30.2 192 28.9 194.2C41.3 185.7 54.3 181.9 68.9 184.1C69.9 184.3 71.2 182.9 72.4 182.2ZM53.7 234.7C55.6 234.6 57.2 234.7 58.8 234.4C62.5 233.7 66 232.7 66.8 228.2C67.5 223.9 64.6 221.7 61.4 220.2C56.7 217.9 51.7 216.1 46.9 214.2C49.6 216.7 52.7 218.6 55.7 220.6C60.6 223.8 60.5 226.1 57.1 231.4C56.2 232.4 55 233.3 53.7 234.7ZM246 222.4C246 221.9 246 221.4 246 220.8C241.1 219.6 236.3 217.7 231.3 217.3C222.9 216.7 214.3 217.5 205.9 216.9C199.5 216.5 193.2 215 186.8 214C186.7 214.5 186.7 215.1 186.6 215.6C206.4 218 226.2 220.2 246 222.4ZM272.8 79.1C280.9 71.4 281.2 61.5 272.8 54.7C272.8 63 272.8 71.3 272.8 79.1ZM271.7 72.5C271.7 71.6 271.8 70.8 271.8 69.9C269.7 68.6 267.5 66.3 265.5 66.4C263.6 66.5 261.9 69.2 260.1 70.8C261.8 72.5 263.3 75.4 265.2 75.6C267.2 75.8 269.5 73.6 271.7 72.5ZM320.9 173.1C318.8 173.4 316.7 174.6 317 178C317.3 181.1 318.5 183.6 322 183.6C325.5 183.6 326.8 181.1 326.6 177.9C326.5 174.8 325.2 172.9 320.9 173.1ZM145.8 229.9C142.9 234.8 140.5 238.8 138.1 242.9C138.3 243.2 138.5 243.5 138.8 243.8C142.7 241.7 146.6 239.6 150.8 237.3C148.8 234.3 147.5 232.4 145.8 229.9ZM27.7 179.8C27.7 179.1 27.8 178.4 27.8 177.6C25 177.7 22.2 177.7 19.6 178.2C19.2 178.3 19.5 181.6 19.5 183.4C19.9 183.4 20.4 183.4 20.8 183.4C21.6 182 22.4 180.6 23.3 179.1C24.9 179.3 26.3 179.5 27.7 179.8ZM146.9 247.5C145.1 246.2 143.9 244.8 142.9 244.9C141.9 245 140.9 246.5 139.9 247.4C140.9 248.4 141.8 250.1 143 250.3C143.8 250.5 145.1 248.9 146.9 247.5Z" fill="black"/>
<path d="M316.1 208.4C328.6 204.6 342.8 212.2 347.5 224.8C352.6 238.3 346.4 253.3 333.4 259.2C320.1 265.3 304.8 260.1 297.9 247.2C291.5 235.2 295.2 219.6 306.5 212.5C308.2 216.1 310.1 219.5 311.5 223.2C311.9 224.3 311.3 226 310.8 227.3C307.6 235 310.7 243.2 318 246C325.2 248.7 333.3 244.7 335.6 237.3C338 229.7 333.1 222.1 324.8 220C322.9 219.5 321.1 217.8 319.9 216.2C318.4 214 317.5 211.2 316.1 208.4Z" fill="white"/>
<path d="M157.1 250.9C153.6 252.4 148.4 254.3 141.8 255.2C136.7 255.9 134.2 255.6 123.8 255.6C108.9 255.6 109.4 256.2 104.4 255.8C95.1 255.1 89.9 252.9 81.4 250.3C50.8 241 41.5 247 31.8 236.6C30.1 234.7 24.1 227.9 24.7 218.9C24.8 217.8 25.5 209.1 31.3 206.2C33.9 204.9 36.3 205.4 46.2 208.5C59.3 212.7 67.8 215.9 67.8 215.9C79.5 220.4 85.3 222.6 85.7 222.8C100.3 231.5 96.7 241.3 106.8 244.3C116.6 247.2 136.8 243 138.7 243.4C138.8 243.4 139.1 243.5 139.5 243.4C140.5 243.3 141.2 242.5 141.4 242.3C141.5 242.2 143.1 241.3 146.4 239.5C147.7 238.8 149.4 237.9 151.3 236.8C153.1 241.5 155.1 246.2 157.1 250.9Z" fill="white" stroke="black" stroke-width="5" stroke-miterlimit="10"/>
<path d="M266.6 62.6C261.5 63.4 257.4 65.3 257.2 70.8C257 76.1 260.9 78.2 266 79.3C265.3 84.4 262.1 88.3 258.5 90.4C251.7 94.4 244 97 236.4 100.3C231.8 90.2 228.8 80.1 230.5 69.2C232.2 58.2 239.3 52.1 252.4 50C264.1 48.2 265.3 46.7 266.6 62.6ZM241.6 83.2C246 83.6 249.8 80.5 250.2 76.1C250.7 71.4 247.5 67.4 243 67C238.6 66.6 234.4 70.2 234.2 74.6C234 79 237.4 82.8 241.6 83.2Z" fill="white"/>
<path d="M82.4 249.7C75.7 258.3 66.1 261.8 54.9 259.7C43.7 257.6 36.6 250.4 33 238.6C43.6 241.1 53.5 243.5 63.5 245.7C69.6 247.1 75.9 248.4 82.4 249.7Z" fill="white"/>
<path d="M249.2 127.4C249.4 128.9 249.5 130.5 249.9 133.7C252.9 131.1 255.1 129.5 257 127.5C258.9 125.5 260.5 123.2 262.6 120.7C267.1 129.5 269.1 138.4 268.4 147.9C268.1 152.1 266.1 155.7 262.3 156.4C260.3 156.8 256.6 154.3 255.4 152.2C251.2 144.6 247.7 136.6 249.2 127.4Z" fill="white"/>
<path d="M46.7 207.9C61.7 199.1 80.8 206.1 86.3 221.9C73.4 217.3 60 212.6 46.7 207.9Z" fill="white"/>
<path d="M285.3 200.3C288 193.6 290.8 186.8 293.3 180.8C291.7 184.7 290.1 188.6 288.5 192.5C287.4 195.1 286.4 197.7 285.3 200.3Z" fill="white"/>
<path d="M53.5 234.6C54.8 233.2 56 232.3 56.8 231.1C60.2 225.9 60.2 223.5 55.4 220.3C52.5 218.4 49.5 216.5 46.8 213.9C51.6 215.9 56.4 217.7 61.1 219.9C64.2 221.4 67.1 223.6 66.4 227.9C65.7 232.4 62.2 233.5 58.6 234.1C57 234.6 55.4 234.5 53.5 234.6Z" fill="black"/>
<path d="M246 222.4C226.2 220.2 206.4 218 186.7 215.8C186.8 215.3 186.8 214.7 186.9 214.2C193.3 215.2 199.6 216.7 206 217.1C214.5 217.6 223 216.9 231.4 217.5C236.3 217.8 241.2 219.8 246.1 221C246 221.4 246 221.9 246 222.4Z" fill="white"/>
<path d="M272.8 79.1C272.8 71.3 272.8 63 272.8 54.7C281.1 61.5 280.9 71.4 272.8 79.1Z" fill="#F4B62A"/>
<path d="M271.7 72.5C269.5 73.6 267.2 75.9 265.2 75.6C263.3 75.4 261.8 72.5 260.1 70.8C261.9 69.2 263.6 66.5 265.5 66.4C267.5 66.3 269.7 68.7 271.8 69.9C271.8 70.7 271.8 71.6 271.7 72.5Z" fill="white"/>
<path d="M320.9 173.1C325.2 172.9 326.5 174.8 326.7 177.9C326.9 181.2 325.6 183.6 322.1 183.6C318.6 183.6 317.4 181.1 317.1 178C316.7 174.6 318.9 173.4 320.9 173.1Z" fill="white"/>
<path d="M27.7 179.8C26.3 179.6 24.9 179.3 23.3 179.1C22.4 180.6 21.6 182 20.8 183.4C20.4 183.4 19.9 183.4 19.5 183.4C19.5 181.6 19.2 178.3 19.6 178.2C22.3 177.6 25.1 177.7 27.8 177.6C27.8 178.3 27.7 179.1 27.7 179.8Z" fill="white"/>
<path d="M146.9 247.5C145.1 248.9 143.9 250.5 143 250.3C141.8 250 140.9 248.4 139.9 247.4C140.9 246.5 141.8 244.9 142.9 244.9C143.9 244.8 145.1 246.2 146.9 247.5Z" fill="black"/>
<path d="M241.6 83.2C237.3 82.8 234 79 234.2 74.7C234.4 70.3 238.6 66.6 243 67.1C247.5 67.5 250.6 71.5 250.2 76.2C249.8 80.5 246 83.6 241.6 83.2Z" fill="black"/>
<path d="M353.7 182.7C350 174.6 344.4 168.5 336.2 164.1C331.9 161.8 327.4 160.3 322.9 159.5C315.6 157.4 309.1 156.9 307.1 158.1C306.9 158.1 306.7 158.1 306.5 158.1C305 158.1 303.9 159.3 303.9 159.3C301.8 160.8 300.9 163 300.5 164.1C300.2 164.9 299.2 167.6 299.1 170.5C294.5 180.5 290 190.4 285.4 200.4C295.4 194.6 305.4 188.9 315.5 183.1C315.3 181.5 315 179.8 314.5 177.9C314.6 177.8 314.7 177.7 314.8 177.6C315.4 176.6 315.3 175.2 316.8 173.6C317.1 173.3 317.9 172.5 319.1 171.9C319.5 171.7 322.4 170.4 325.2 171.8C327 172.6 327.8 174.1 328.2 174.7C330.4 178.4 328.9 182.7 328.6 183.4C328.9 183.4 329.2 183.4 329.6 183.4C329.4 183.6 329.2 183.8 329 184.1C337.3 183.9 345.6 183.6 353.8 183.4C353.7 183.2 353.6 183 353.5 182.8C353.5 182.7 353.6 182.7 353.7 182.7Z" fill="#F4B62A"/>
<path d="M288.2 106C284.9 106.3 287.5 136.9 287.3 138.9C287.3 139 287.2 139.4 287.5 139.7C287.8 140 288.2 140 288.3 139.9C289.1 139.9 295.4 139.9 304 139.9C303.2 136 301.5 129.6 298.5 123C296.9 119.4 295 116.2 294.7 115.6C293.6 113.7 292.7 112.4 291 109.8C289.3 107.3 288.4 105.9 288.2 106Z" fill="#F4B62A"/>
<path d="M42.5 170.6C38.8 168.2 35.4 165.3 32.6 161.9C32 161.1 31.3 160.2 31.5 159.3C32 157.2 35 157.8 37.1 157.8C40.7 157.8 42.6 155.3 45 153.6C72.5 134.1 92.5 132.1 92.5 132.1C97.1 131.6 101 131.8 108.9 132.2C117.4 132.6 122.3 132.9 128.9 134.6C137.8 136.9 143.7 140.3 145.7 141.5C150.4 144.3 152.8 145.8 155.1 148.8C160.2 155.4 160.1 163.3 160 168.6C159.9 175.4 158.2 181.9 157.7 183.6C156.7 187.4 156.1 188 155.7 191.1C154.9 196 155.7 198.2 154.3 202.3C153.9 203.4 153.2 205.4 151.7 207.4C147.7 212.5 141.1 213.2 139 213.4C137.8 213.5 130 214.3 123.1 209.2C117 204.7 118.6 200.8 113.2 194C103 180.8 84.5 179 82.8 178.9C79.1 178.6 73 178.6 66.9 179C60 179.5 55.2 180.5 50.5 177.7C48.2 176.4 46.7 174.6 45.9 173.3" fill="#F4B62A"/>
<path d="M34.4 158.3C34.6 158.4 34.5 158.3 38.7 158.4C40.2 158.4 41.7 158.8 43.2 158.7C43.2 158.7 44.5 158.6 46 159.7C46.2 159.8 46.4 160.1 46.5 160.5C46.6 161.1 46.4 161.9 46.3 162C45.6 163 44.5 163.1 43.5 163.2C39.9 163.4 36.2 163.6 32.6 163C31.4 162.8 30 162.1 29.7 160.3C29.7 160.2 29.7 159.9 29.8 159.6C30 158.7 30.6 158.4 30.8 158.2C32 157.4 33.4 158 34.4 158.3Z" fill="white"/>
<path d="M33.8 156.5C35.5 157.2 36.4 159 37.1 160.7C37.4 161.4 37.6 162.2 37.2 162.7C36.9 163 36.5 163.2 36.1 163.3C34.8 163.6 33.4 163.7 32.1 163.5C31.1 163.4 30.1 163 29.6 162.2C29.3 161.7 29.2 161.1 29.2 160.5C29.2 159.9 29.3 159.3 29.7 158.8C30 158.5 30.4 158.3 30.8 158.1C32.3 157.5 34 157.6 35.6 157.7" fill="black"/>
<path d="M24.9 145.9C24.1 147.6 23.2 150.1 22.8 153.2C22.6 155.3 22.8 155.6 22.5 157.5C22.1 160 21.4 161 19.9 165C19.5 166.1 18.9 167.8 18.2 169.9C16.6 169.3 15.3 169.1 14.4 169C13.2 168.9 11.9 168.9 10.9 168C10.6 167.8 10.5 167.5 10.3 167.3C7.60002 163 8.50002 159.1 8.50002 159C9.00002 156.7 10.3 155.1 10.9 154.4C11.7 153.4 12.5 152.8 13.2 152.4" fill="#F4B62A"/>
<path d="M23.2 145.1C21.3 148.6 19.4 152.3 18.2 156.2C17 160 16.6 164 15.3 167.8C14.9 169.1 15.8 170.5 17 170.9C18.4 171.3 19.6 170.4 20.1 169.2C21.3 165.6 21.8 161.7 22.9 158C24 154.4 25.7 151 27.5 147.7C29 144.8 24.7 142.3 23.2 145.1Z" fill="black"/>
<path d="M113.2 188.4C113.3 188 113.4 188 113 188.7C113.1 188.6 113.3 188.5 113.1 188.6C112.8 188.7 113.8 188.3 113.2 188.4C114.1 188.1 115 187.9 115.8 187.8C117.2 187.5 119 187.5 120.3 187.7C120.9 187.8 121.6 187.9 122.1 188.1C122.4 188.2 122.7 188.4 122.9 188.6C122.9 188.6 123.4 188.9 123.2 188.8C123.1 188.7 123.4 189 123.4 189C124.4 189.9 124.8 190.5 125.4 191.8C125.8 192.7 126.2 194 126.6 195.2C126.8 195.8 126.9 196.4 127.1 197C127.2 197.3 127.3 197.6 127.3 198C127.3 198.2 127.4 198.4 127.4 198.6C127.4 198.4 127.4 198.7 127.4 198.8C127.4 199.2 127.4 199.5 127.4 199.9C127.4 199.9 127.4 200.3 127.4 200.1C127.4 199.8 127.3 200.4 127.3 200.4C127.3 200.5 127.2 200.7 127.2 200.8C127.3 200.5 127.1 200.9 127.1 200.9C127.3 200.6 126.6 201.4 126.9 201.1C126.8 201.2 126.6 201.3 126.5 201.4C126.6 201.3 126.8 201.3 126.4 201.4C126.3 201.4 125.7 201.5 126 201.5C125.2 201.6 125.1 201.6 124.3 201.3C123.2 200.9 122.1 199.9 121.1 199.1C119.8 198 118.6 196.8 117.3 195.7C116.3 194.7 115.2 193.8 114.5 192.6C113.8 191.4 113.4 189.8 113.2 188.4C113.2 188.1 113.2 188.4 113.2 188.4C113.1 187.7 113.3 188.3 113.2 188.3C112.9 188.3 112.2 189.6 111.8 189.3C111.9 189.4 112.1 189.4 112.2 189.4C113 189.5 113.7 189.7 114.5 189.9C115.2 190.1 115.8 190.2 116.5 190.4C117.1 190.6 117.8 190.8 118.2 191C120.8 192.2 122.2 193.9 123.1 196.7C123.3 197.5 123.5 198.3 123.7 199.1C123.6 198.5 123.8 199.8 123.7 199.5C123.7 199.3 123.7 199.5 123.7 199.6C124 199.1 124.4 198.9 124.9 198.7C125.2 198.6 125.2 198.8 125.1 198.6C125 198.5 124.6 198.3 124.5 198.3C124.2 198.1 123.8 197.9 123.5 197.7C123 197.4 122.6 197 122 196.5C119.6 194.3 118 191.7 116.3 188.8C115.2 189.9 114 191.1 112.9 192.2C115.6 194.1 118.2 196.3 120.6 198.7C122.9 201 126.4 197.4 124.1 195.2C121.4 192.5 118.5 190.1 115.4 187.9C113.3 186.4 110.7 189.3 112 191.3C114 194.6 116.1 198 119.1 200.5C120.6 201.8 122.7 203.5 124.8 203.6C127.4 203.7 128.9 201.4 128.8 199C128.6 194.8 126.5 190.4 123 187.8C121.5 186.7 119.6 185.9 117.8 185.4C117 185.1 116.1 184.9 115.3 184.7C114.3 184.5 113.2 184.1 112.1 184.2C110.6 184.2 109.4 185 108.8 186.3C108.3 187.4 108.4 188.6 108.6 189.8C109 191.9 109.6 194 110.9 195.8C112.2 197.6 113.8 199 115.4 200.4C117 201.9 118.5 203.4 120.3 204.6C123.8 207 129.4 207.3 131.7 203.1C133.6 199.7 132.1 195.3 131 191.9C129.6 187.7 127 183.9 122.4 183C119.7 182.4 116.9 182.5 114.3 183.1C111.9 183.6 109.2 184.5 108.5 187.1C108.2 188.4 108.9 189.8 110.2 190.2C111.4 190.5 112.9 189.8 113.2 188.4Z" fill="black"/>
</svg>
